<?xml version="1.0" encoding="utf-8"?>
<!-- Generator: Adobe Illustrator 21.0.2, SVG Export Plug-In . SVG Version: 6.00 Build 0)  -->
<svg version="1.1" id="Layer_2" xmlns="http://www.w3.org/2000/svg" xmlns:xlink="http://www.w3.org/1999/xlink" x="0px" y="0px"
	 viewBox="0 0 1300 1300" style="enable-background:new 0 0 1300 1300;" xml:space="preserve">
<style type="text/css">
	.st0{fill:#524B45;}
	.st1{fill:#3E3831;}
	.st2{fill:#4E4238;}
	.st3{fill:#655B4F;}
	.st4{fill:#594735;}
	.st5{fill:#504436;}
	.st6{fill:#6D583F;}
	.st7{fill:#8B6E47;}
	.st8{fill:#453B33;}
	.st9{fill:#4C4435;}
	.st10{fill:#655043;}
	.st11{fill:#755637;}
	.st12{fill:#8C8072;}
	.st13{fill:#463A2F;}
	.st14{fill:#8E7958;}
	.st15{fill:#D7BB83;}
	.st16{fill:#C5B9A2;}
	.st17{fill:#B3A078;}
	.st18{fill:#BEA274;}
	.st19{fill:#A58860;}
	.st20{fill:#896947;}
	.st21{fill:#DDC6A3;}
	.st22{fill:#D2BC99;}
	.st23{fill:#AA8D64;}
	.st24{fill:#5B4836;}
	.st25{fill:#4F4738;}
	.st26{fill:#66513A;}
	.st27{fill:#3E382D;}
	.st28{fill:#7D6F54;}
	.st29{fill:#4E3B2C;}
	.st30{fill:#705D43;}
	.st31{fill:#907249;}
	.st32{fill:#9A7E56;}
	.st33{fill:#726755;}
	.st34{fill:#554433;}
	.st35{fill:#997E5D;}
	.st36{fill:#9B8771;}
	.st37{fill:#6D6253;}
	.st38{fill:#4F4336;}
	.st39{fill:#8E7553;}
	.st40{fill:#584836;}
	.st41{fill:#A78657;}
	.st42{fill:#87683B;}
	.st43{fill:#A18A62;}
	.st44{fill:#C5A97C;}
	.st45{fill:#927041;}
	.st46{fill:#AA8A5B;}
	.st47{fill:#B49F80;}
	.st48{fill:#595146;}
	.st49{fill:#866C48;}
	.st50{fill:#B49A6F;}
	.st51{fill:#957B52;}
	.st52{fill:#745F51;}
	.st53{fill:#715B3F;}
	.st54{fill:#51483D;}
	.st55{fill:#ABB0BC;}
	.st56{fill:#4A4034;}
	.st57{fill:#C4A67D;}
	.st58{fill:#926E40;}
	.st59{fill:#4A473E;}
	.st60{fill:#79695A;}
	.st61{fill:#B7B0A5;}
	.st62{fill:#B7A38C;}
	.st63{fill:#A59274;}
	.st64{fill:#C4AA83;}
	.st65{fill:#876C4C;}
	.st66{fill:#B3925D;}
	.st67{fill:#B39364;}
	.st68{fill:#AE9B7F;}
	.st69{fill:#876F53;}
	.st70{fill:#A69480;}
	.st71{fill:#A08254;}
	.st72{fill:#C4A776;}
	.st73{fill:#89683A;}
	.st74{fill:#C4A679;}
	.st75{fill:#BD9F74;}
	.st76{fill:#99794B;}
	.st77{fill:#846747;}
	.st78{fill:#878A8F;}
	.st79{fill:#EEF3FB;}
	.st80{fill:#C0A678;}
	.st81{fill:#F5FBFD;}
	.st82{fill:#F7FBFE;}
	.st83{fill:#826943;}
	.st84{fill:#CBB791;}
	.st85{fill:#AC8F65;}
	.st86{fill:#73634B;}
	.st87{fill:#AA8C60;}
	.st88{fill:#A69073;}
	.st89{fill:#AF8F66;}
	.st90{fill:#B29E7C;}
	.st91{fill:#9C8B74;}
	.st92{fill:#C7A97B;}
	.st93{fill:#D4C9B4;}
	.st94{fill:#AF8B5C;}
	.st95{fill:#AF8F67;}
	.st96{fill:#887453;}
	.st97{fill:#9A8E75;}
	.st98{fill:#88826C;}
	.st99{fill:#E8EFF8;}
	.st100{fill:#BAB5A1;}
	.st101{fill:#E0E0DA;}
	.st102{fill:#C2C9CA;}
	.st103{fill:#D9D7D3;}
	.st104{fill:#553F2A;}
	.st105{fill:#A78A5C;}
	.st106{fill:#CECBC6;}
	.st107{fill:#412E26;}
	.st108{fill:#584838;}
	.st109{fill:#30292B;}
	.st110{fill:#3B362A;}
	.st111{fill:#CBC2AE;}
	.st112{fill:#CBC4B6;}
	.st113{fill:#292524;}
	.st114{fill:#392E27;}
	.st115{fill:#E0DFD1;}
	.st116{fill:#66513D;}
	.st117{fill:#59492F;}
	.st118{fill:#C3AD83;}
	.st119{fill:#C4AA80;}
	.st120{fill:#E5E1D9;}
	.st121{fill:#E1E5EF;}
	.st122{fill:#272525;}
	.st123{fill:#C6B74A;}
	.st124{fill:#D3C954;}
	.st125{fill:#D5CA58;}
	.st126{fill:#C8B992;}
	.st127{fill:#E8DF67;}
	.st128{fill:#8D775C;}
	.st129{fill:#B59464;}
	.st130{fill:#CAA46B;}
	.st131{fill:#A48E6D;}
	.st132{fill:#E4DED8;}
	.st133{fill:#574030;}
	.st134{fill:#553E2B;}
	.st135{fill:#746550;}
	.st136{fill:#392C26;}
	.st137{fill:#BCB295;}
	.st138{fill:#A18540;}
	.st139{fill:#C4AB77;}
	.st140{fill:#443A2C;}
	.st141{fill:#7F7163;}
	.st142{fill:#EADC6B;}
	.st143{fill:#CAB898;}
	.st144{fill:#B8BCB5;}
	.st145{fill:#D5CCB0;}
	.st146{fill:#593F29;}
	.st147{fill:#573F28;}
	.st148{fill:#E3E6E9;}
	.st149{fill:#EDF8F8;}
	.st150{fill:#BCA176;}
	.st151{fill:#D2CFCF;}
	.st152{fill:#2D292B;}
	.st153{fill:#262323;}
	.st154{fill:#5A4733;}
	.st155{fill:#E5E17A;}
	.st156{fill:#E9E375;}
	.st157{fill:#A4845D;}
	.st158{fill:#CCCBC2;}
	.st159{fill:#998863;}
	.st160{fill:#503C29;}
	.st161{fill:#232222;}
	.st162{fill:#747FA4;}
	.st163{fill:#353028;}
	.st164{fill:#908782;}
	.st165{fill:#654B2A;}
	.st166{fill:#7B8287;}
	.st167{fill:#A18149;}
	.st168{fill:#E0DAC3;}
	.st169{fill:#96753D;}
	.st170{fill:#282725;}
	.st171{fill:#EAEFF9;}
	.st172{fill:#4E3C2A;}
	.st173{fill:#5E5647;}
	.st174{fill:#A3ADC7;}
	.st175{fill:#CEDCEA;}
	.st176{fill:#3E4A54;}
	.st177{fill:#DADBD7;}
	.st178{fill:#7B6033;}
	.st179{fill:#2D2626;}
	.st180{fill:#D4D26E;}
	.st181{fill:#D8D7D3;}
	.st182{fill:#C1A573;}
	.st183{fill:#8F7348;}
	.st184{fill:#968C75;}
	.st185{fill:#E7EAF6;}
	.st186{fill:#8A7256;}
	.st187{fill:#232322;}
	.st188{fill:#38312C;}
	.st189{fill:#362C25;}
	.st190{fill:#2C2726;}
	.st191{fill:#CCBAA1;}
	.st192{fill:#B5A074;}
	.st193{fill:#C5C3B3;}
	.st194{fill:#A9ADB2;}
	.st195{fill:#FEFEFA;}
	.st196{fill:#B2B8C7;}
	.st197{fill:#E9EAE9;}
	.st198{fill:#CEC7AE;}
	.st199{fill:#3A2E26;}
	.st200{fill:#D4D9DB;}
	.st201{fill:#3F2E26;}
	.st202{fill:#242426;}
	.st203{fill:#938470;}
	.st204{fill:#232323;}
	.st205{fill:#B49B77;}
	.st206{fill:#463428;}
	.st207{fill:#94784F;}
	.st208{fill:#ECF2FA;}
	.st209{fill:#E7E066;}
	.st210{fill:#9B8260;}
	.st211{fill:#5F4936;}
	.st212{fill:#CBB48E;}
	.st213{fill:#E0E5D0;}
	.st214{fill:#CEC3BC;}
	.st215{fill:#927850;}
	.st216{fill:#604328;}
	.st217{fill:#594834;}
	.st218{fill:#CFC955;}
	.st219{fill:#E1DB5A;}
	.st220{fill:#CEB589;}
	.st221{fill:#D7D6DB;}
	.st222{fill:#59452D;}
	.st223{fill:#AE967A;}
	.st224{fill:#4E3B29;}
	.st225{fill:#DED0A4;}
	.st226{fill:#CBCCC7;}
	.st227{fill:#2C2629;}
	.st228{fill:#CAB390;}
	.st229{fill:#3C2D27;}
	.st230{fill:#9C8460;}
	.st231{fill:#E2DCC5;}
	.st232{fill:#46382C;}
	.st233{fill:#D5BF99;}
	.st234{fill:#CFB789;}
	.st235{fill:#8D793D;}
	.st236{fill:#D4C84E;}
	.st237{fill:#493C2B;}
	.st238{fill:#A8ACB9;}
	.st239{fill:#42362A;}
	.st240{fill:#F9FDFF;}
	.st241{fill:#CEC4A3;}
	.st242{fill:#7A5E3E;}
	.st243{fill:#8B6B4B;}
	.st244{fill:#272528;}
	.st245{fill:#60472F;}
	.st246{fill:#D3D7D5;}
	.st247{fill:#E9EEF8;}
	.st248{fill:#44372C;}
	.st249{fill:#C9CFD9;}
	.st250{fill:#D8D9D3;}
	.st251{fill:#9B9693;}
	.st252{fill:#C2B8AB;}
	.st253{fill:#292627;}
	.st254{fill:#2F2C27;}
	.st255{fill:#272424;}
	.st256{fill:#292525;}
	.st257{fill:#CCD0DB;}
	.st258{fill:#D7DAE2;}
	.st259{fill:#9E9E93;}
	.st260{fill:#9C805B;}
	.st261{fill:#AB8B5B;}
	.st262{fill:#534433;}
	.st263{fill:#B1A48E;}
	.st264{fill:#685E4E;}
	.st265{fill:#3F3529;}
	.st266{fill:#B1A699;}
	.st267{fill:#938E89;}
	.st268{fill:#524F46;}
	.st269{fill:#75695B;}
	.st270{fill:#685F4F;}
	.st271{fill:#B7B9BD;}
	.st272{fill:#A1A6AC;}
	.st273{fill:#D1D6DB;}
	.st274{fill:#CCCFD1;}
	.st275{fill:#C1A982;}
	.st276{fill:#493B2F;}
	.st277{fill:#D6C8A9;}
	.st278{fill:#B9A47F;}
	.st279{fill:#836C4C;}
	.st280{fill:#C1B8AA;}
	.st281{fill:#B4BDC2;}
	.st282{fill:#EBF2FA;}
	.st283{fill:#D4D8D8;}
	.st284{fill:#67594C;}
	.st285{fill:#695F4D;}
	.st286{fill:#2B2725;}
	.st287{fill:#8C6D47;}
	.st288{fill:#9FA5A6;}
	.st289{fill:#706C5F;}
	.st290{fill:#C3CBD8;}
	.st291{fill:#70695D;}
	.st292{fill:#DADFEA;}
	.st293{fill:#C4C9CF;}
	.st294{fill:#B4B4B6;}
	.st295{fill:#7E7771;}
	.st296{fill:#937D5D;}
	.st297{fill:#BBB09B;}
	.st298{fill:#A69F92;}
	.st299{fill:#AD9A7A;}
	.st300{fill:#4A433A;}
	.st301{fill:#756A5F;}
	.st302{fill:#AAABA7;}
	.st303{fill:#A09581;}
	.st304{fill:#C5C9CC;}
	.st305{fill:#C8CAD4;}
	.st306{fill:#EBECE7;}
	.st307{fill:#8A785B;}
	.st308{fill:#C0A679;}
	.st309{fill:#46382B;}
	.st310{fill:#F9F9FC;}
	.st311{fill:#695E4F;}
	.st312{fill:#B09C7A;}
	.st313{fill:#BCA880;}
	.st314{fill:#988C71;}
	.st315{fill:#6E5331;}
	.st316{fill:#CACDBF;}
	.st317{fill:#4C3A2C;}
	.st318{fill:#DED9BD;}
	.st319{fill:#796D5D;}
	.st320{fill:#999891;}
	.st321{fill:#73685C;}
	.st322{fill:#5A4D3B;}
	.st323{fill:#423528;}
	.st324{fill:#443127;}
	.st325{fill:#4D4438;}
	.st326{fill:#A58B67;}
	.st327{fill:#B8BDC4;}
	.st328{fill:#9EA0A6;}
	.st329{fill:#917550;}
	.st330{fill:#987B57;}
	.st331{fill:#64492F;}
	.st332{fill:#403D38;}
	.st333{fill:#A8A4AF;}
	.st334{fill:#B19369;}
	.st335{fill:#9C8E73;}
	.st336{fill:#B2A185;}
	.st337{fill:#3A3C32;}
	.st338{fill:#78746E;}
	.st339{fill:#3B3729;}
	.st340{fill:#D0DAE0;}
	.st341{fill:#DFCBAE;}
	.st342{fill:#886C4D;}
	.st343{fill:#675F51;}
	.st344{fill:#363229;}
	.st345{fill:#292826;}
	.st346{fill:#433328;}
	.st347{fill:#89663C;}
	.st348{fill:#D9E0ED;}
	.st349{fill:#B7C1D7;}
	.st350{fill:#362826;}
	.st351{fill:#87643C;}
	.st352{fill:#866F60;}
</style>
<g>
	<g id="XMLID_2_">
		<g>
			<polygon class="st0" points="1146.1,317.4 1111.7,372.8 1107.7,303.4 			"/>
			<polygon class="st1" points="1107.7,303.4 1111.7,372.8 1005.7,400.1 1055.8,334.2 956.2,392.4 			"/>
			<polygon class="st2" points="1111.7,372.8 1104.5,420.2 1005.7,400.1 			"/>
			<polygon class="st3" points="1107.7,303.4 956.2,392.4 1029,313.9 			"/>
			<polygon class="st4" points="1104.5,420.2 1048.4,527.9 1053.1,435.9 			"/>
			<polygon class="st5" points="1104.5,420.2 1053.1,435.9 1005.7,400.1 			"/>
			<polygon class="st6" points="1055.8,334.2 1005.7,400.1 956.2,392.4 			"/>
			<polygon class="st7" points="1053.1,435.9 1048.4,527.9 1010.8,518.1 			"/>
			<polygon class="st8" points="1053.1,435.9 1010.8,518.1 1002.2,494 			"/>
			<polygon class="st9" points="1053.1,435.9 1002.2,494 993.8,475.1 			"/>
			<polygon class="st10" points="1053.1,435.9 993.8,475.1 1005.7,400.1 			"/>
			<polygon class="st11" points="1048.4,527.9 1017.8,556.9 1010.8,518.1 			"/>
			<polygon class="st12" points="1024.8,646.9 1029.7,721.5 998.7,717.3 			"/>
			<polygon class="st13" points="1029.7,721.5 998.7,759.8 998.7,717.3 			"/>
			<polygon class="st14" points="1029,313.9 956.2,392.4 893.8,390.3 			"/>
			<polygon class="st15" points="1029,313.9 893.8,390.3 907.2,330 			"/>
			<polygon class="st16" points="1024.8,604.4 1024.8,646.9 1014,606 			"/>
			<polygon class="st17" points="1017.8,556.9 1024.8,604.4 1014,606 			"/>
			<polygon class="st18" points="1014,606 1024.8,646.9 997.8,607.9 			"/>
			<polygon class="st19" points="997.8,607.9 1024.8,646.9 998.7,717.3 997.8,630.3 			"/>
			<polygon class="st20" points="1010.8,518.1 1017.8,556.9 953.4,539.9 977.5,537.9 993.8,531.3 993.2,530.7 			"/>
			<polygon class="st21" points="1017.8,556.9 1014,606 988.1,586.5 			"/>
			<polygon class="st22" points="1017.8,556.9 988.1,586.5 953.4,539.9 			"/>
			<polygon class="st23" points="1014,606 997.8,607.9 988.1,586.5 			"/>
			<polygon class="st24" points="1002.2,494 1010.8,518.1 993.2,530.7 992.7,530.2 			"/>
			<polygon class="st25" points="1005.7,400.1 993.8,475.1 974.9,458.6 			"/>
			<polygon class="st26" points="1005.7,400.1 974.9,458.6 956.2,392.4 			"/>
			<polygon class="st27" points="993.8,475.1 1002.2,494 992.7,530.2 977.5,513.7 			"/>
			<polygon class="st28" points="998.7,717.3 998.7,759.8 971.1,758.3 			"/>
			<polygon class="st29" points="997.8,630.3 998.7,717.3 985.2,626.1 			"/>
			<polygon class="st30" points="985.2,626.1 998.7,717.3 976.2,685.5 			"/>
			<polygon class="st31" points="976.2,685.5 998.7,717.3 948.2,733.4 			"/>
			<polygon class="st32" points="998.7,717.3 971.1,758.3 948.2,733.4 			"/>
			<polygon class="st33" points="998.7,759.8 976.2,805.4 971.1,758.3 			"/>
			<polygon class="st34" points="997.8,607.9 997.8,630.3 985.2,626.1 			"/>
			<polygon class="st35" points="988.1,586.5 997.8,607.9 985.2,626.1 			"/>
			<polygon class="st36" points="993.8,475.1 977.5,513.7 967.1,502 			"/>
			<polygon class="st37" points="993.8,475.1 967.1,502 950.5,470.9 974.9,458.6 			"/>
			<polygon class="st38" points="993.8,531.3 977.5,537.9 977.5,513.7 992.7,530.2 992.4,531.3 993.2,530.7 			"/>
			<polygon class="st39" points="953.4,539.9 988.1,586.5 956,571.7 911.7,526.1 			"/>
			<polygon class="st40" points="988.1,586.5 985.2,626.1 956,571.7 			"/>
			<polygon class="st41" points="956,571.7 985.2,626.1 921.6,606 			"/>
			<polygon class="st42" points="985.2,626.1 976.2,685.5 921.6,606 			"/>
			<polygon class="st43" points="977.5,513.7 977.5,537.9 967.1,502 			"/>
			<polygon class="st44" points="967.1,502 977.5,537.9 953.4,539.9 			"/>
			<polygon class="st45" points="921.6,606 976.2,685.5 906.6,638.3 			"/>
			<polygon class="st46" points="976.2,685.5 948.2,733.4 904.3,690.4 			"/>
			<polygon class="st47" points="971.1,758.3 976.2,805.4 948.2,785.1 			"/>
			<polygon class="st48" points="976.2,805.4 971.1,848.9 956.9,831.5 			"/>
			<polygon class="st49" points="976.2,805.4 956.9,831.5 925.9,811.2 			"/>
			<polygon class="st50" points="976.2,685.5 904.3,690.4 906.6,638.3 			"/>
			<polygon class="st51" points="976.2,805.4 925.9,811.2 948.2,785.1 			"/>
			<polygon class="st52" points="956.2,392.4 974.9,458.6 953.1,420.7 			"/>
			<polygon class="st53" points="953.1,420.7 974.9,458.6 946,455.9 949.1,437.6 927.9,452.3 914.9,436.2 			"/>
			<polygon class="st54" points="974.9,458.6 950.5,470.9 923.4,484.5 946,455.9 			"/>
			<polygon class="st55" points="956.9,831.5 971.1,848.9 945.8,859.8 			"/>
			<polygon class="st56" points="971.1,848.9 942.5,889.6 945.8,859.8 			"/>
			<polygon class="st57" points="971.1,758.3 948.2,785.1 913.9,752.4 			"/>
			<polygon class="st58" points="971.1,758.3 913.9,752.4 948.2,733.4 			"/>
			<polygon class="st59" points="950.5,470.9 967.1,502 935.7,508.5 			"/>
			<polygon class="st60" points="967.1,502 953.4,539.9 935.7,508.5 			"/>
			<polygon class="st61" points="956.9,831.5 945.8,859.8 932.6,839.9 			"/>
			<polygon class="st62" points="956.9,831.5 932.6,839.9 925.9,811.2 			"/>
			<polygon class="st63" points="956.2,392.4 953.1,420.7 932.3,419.3 			"/>
			<polygon class="st64" points="956.2,392.4 932.3,419.3 953.1,420.7 902.6,425.5 892.4,408.3 			"/>
			<polygon class="st65" points="956.2,392.4 892.4,408.3 843.7,420.4 893.8,390.3 			"/>
			<polygon class="st66" points="956,571.7 921.6,606 911.7,590.5 873.7,555.1 861.9,534.1 			"/>
			<polygon class="st67" points="956,571.7 861.9,534.1 911.7,526.1 			"/>
			<polygon class="st68" points="935.7,508.5 953.4,539.9 911.7,526.1 			"/>
			<polygon class="st69" points="953.1,420.7 914.9,436.2 902.6,425.5 			"/>
			<polygon class="st70" points="950.5,470.9 935.7,508.5 911.7,526.1 923.4,484.5 			"/>
			<polygon class="st71" points="949.1,437.6 946,455.9 927.9,452.3 			"/>
			<polygon class="st72" points="948.2,733.4 913.9,752.4 886.4,725.6 			"/>
			<polygon class="st73" points="948.2,733.4 886.4,725.6 904.3,690.4 			"/>
			<polygon class="st74" points="948.2,785.1 925.9,811.2 906,792.6 			"/>
			<polygon class="st75" points="948.2,785.1 906,792.6 879,771.1 			"/>
			<polygon class="st76" points="948.2,785.1 879,771.1 913.9,752.4 			"/>
			<polygon class="st77" points="946,455.9 923.4,484.5 893.8,499.4 884.9,475.2 885,475.1 927.9,452.3 			"/>
			<polygon class="st78" points="932.6,839.9 945.8,859.8 942.5,889.6 			"/>
			<polygon class="st79" points="932.6,839.9 942.5,889.6 864.6,839.9 			"/>
			<polygon class="st80" points="942.5,889.6 903.5,931.7 887,908.3 875.1,881.6 			"/>
			<polygon class="st81" points="942.5,889.6 875.1,881.6 861.5,873.6 883.8,873.6 			"/>
			<polygon class="st82" points="942.5,889.6 883.8,873.6 864.6,839.9 			"/>
			<polygon class="st83" points="925.9,811.2 932.6,839.9 817.7,771.1 			"/>
			<polygon class="st84" points="932.6,839.9 864.6,839.9 824.1,807.2 			"/>
			<polygon class="st85" points="932.6,839.9 824.1,807.2 817.7,771.1 			"/>
			<polygon class="st86" points="914.9,436.2 927.9,452.3 885,475.1 			"/>
			<polygon class="st87" points="925.9,811.2 817.7,771.1 906,792.6 			"/>
			<polygon class="st88" points="923.4,484.5 911.7,526.1 893.8,499.4 			"/>
			<polygon class="st89" points="911.7,590.5 921.6,606 906.6,638.3 			"/>
			<polygon class="st90" points="914.9,436.2 884.9,475.1 876,486.8 866.7,481.7 			"/>
			<polygon class="st91" points="914.9,436.2 866.7,481.7 807.2,498.9 800.4,487.3 854.2,463.1 			"/>
			<polygon class="st92" points="914.9,436.2 854.2,463.1 843.7,420.4 			"/>
			<polygon class="st93" points="914.9,436.2 843.7,420.4 902.6,425.5 			"/>
			<polygon class="st94" points="913.9,752.4 879,771.1 853.7,747.4 			"/>
			<polygon class="st95" points="913.9,752.4 853.7,747.4 886.4,725.6 			"/>
			<polygon class="st96" points="893.8,499.4 911.7,526.1 861.9,534.1 870.5,494.8 876,486.8 			"/>
			<polygon class="st97" points="911.7,590.5 906.6,638.3 888.1,683.5 894.3,656.2 896,634.3 			"/>
			<polygon class="st98" points="911.7,590.5 896,634.3 891.4,618.8 880.7,598.9 			"/>
			<polygon class="st99" points="911.7,590.5 880.7,598.9 857.5,569.5 			"/>
			<polygon class="st100" points="911.7,590.5 857.5,569.5 856.9,564.7 			"/>
			<polygon class="st101" points="911.7,590.5 856.9,564.7 873.7,555.1 			"/>
			<polygon class="st102" points="906.6,638.3 904.3,690.4 888.1,683.5 			"/>
			<polygon class="st58" points="906,792.6 817.7,771.1 879,771.1 			"/>
			<polygon class="st103" points="904.3,690.4 886.4,725.6 888.1,683.5 			"/>
			<polygon class="st104" points="887,908.3 903.5,931.7 877.6,918.2 			"/>
			<polygon class="st105" points="903.5,931.7 870.5,953.7 877.6,918.2 			"/>
			<polygon class="st106" points="892.4,408.3 902.6,425.5 843.7,420.4 			"/>
			<polygon class="st107" points="891.4,618.8 896,634.3 882.5,633.7 			"/>
			<polygon class="st108" points="896,634.3 894.3,656.2 882.5,633.7 			"/>
			<polygon class="st109" points="882.5,633.7 894.3,656.2 880.7,672.6 			"/>
			<polygon class="st110" points="894.3,656.2 888.1,683.5 880.7,672.6 			"/>
			<polygon class="st111" points="884.9,475.2 893.8,499.4 876,486.8 			"/>
			<polygon class="st112" points="893.8,390.3 843.7,420.4 793.6,416.9 			"/>
			<polygon class="st113" points="880.7,598.9 891.4,618.8 882.5,633.7 			"/>
			<polygon class="st114" points="880.7,672.6 888.1,683.5 869.9,697.2 			"/>
			<polygon class="st115" points="888.1,683.5 886.4,725.6 864.6,716.8 874.1,703.7 			"/>
			<polygon class="st116" points="888.1,683.5 874,703.6 869.9,697.2 			"/>
			<polygon class="st117" points="875.1,881.6 887,908.3 827.1,889.6 			"/>
			<polygon class="st118" points="887,908.3 877.6,918.2 870.5,953.7 836.1,936.6 842.2,928.1 829.3,911.6 858.1,906.6 			"/>
			<polygon class="st119" points="887,908.3 858.1,906.6 827.1,889.6 			"/>
			<polygon class="st120" points="886.4,725.6 853.7,747.4 864.6,716.8 			"/>
			<polygon class="st121" points="864.6,839.9 883.8,873.6 861.5,873.6 833,873.6 800.6,821.1 			"/>
			<polygon class="st122" points="880.7,598.9 882.5,633.7 873.8,616.8 862.7,595.1 			"/>
			<polygon class="st123" points="873.8,616.8 882.5,633.7 848.9,630.1 834.3,612.9 873.6,617 			"/>
			<polygon class="st124" points="882.5,633.7 880.7,672.6 844.7,676.4 852.8,654.7 			"/>
			<polygon class="st125" points="882.5,633.7 852.8,654.7 848.9,630.1 			"/>
			<polygon class="st126" points="857.5,569.5 880.7,598.9 848.1,581.5 			"/>
			<polygon class="st127" points="880.7,672.6 869.9,697.2 844.7,676.4 			"/>
			<polygon class="st128" points="880.7,598.9 862.7,595.1 832.5,594.6 848.1,581.5 			"/>
			<polygon class="st129" points="879,771.1 817.7,771.1 784.2,743.2 808,750 782,723.5 819,745.4 			"/>
			<polygon class="st130" points="879,771.1 819,745.4 853.7,747.4 			"/>
			<polygon class="st131" points="876,486.8 870.5,494.8 866.7,481.7 			"/>
			<polygon class="st132" points="875.1,881.6 827.1,889.6 861.5,873.6 			"/>
			<polygon class="st133" points="874,703.6 873.8,703.9 855,711.5 869.9,697.2 			"/>
			<polygon class="st134" points="862.7,595.1 873.8,616.8 873.6,617 853.6,608.4 			"/>
			<polygon class="st135" points="873.8,703.9 864.6,716.8 829.8,725.6 805.8,721.5 814.3,717.7 855,711.5 			"/>
			<polygon class="st136" points="861.9,534.1 873.7,555.1 817.5,553.4 			"/>
			<polygon class="st137" points="873.7,555.1 856.9,564.7 817.5,553.4 			"/>
			<polygon class="st138" points="873.6,617 834.3,612.9 853.6,608.4 			"/>
			<polygon class="st139" points="866.7,481.7 870.5,494.8 842.1,534.4 861.9,534.1 817.5,553.4 825.2,508.6 			"/>
			<polygon class="st140" points="870.5,494.8 861.9,534.1 842.1,534.4 			"/>
			<polygon class="st141" points="870.5,953.7 860.4,961.8 836.1,936.6 			"/>
			<polygon class="st142" points="869.9,697.2 855,711.5 844.7,676.4 			"/>
			<polygon class="st143" points="866.7,481.7 825.2,508.6 807.2,498.9 			"/>
			<polygon class="st144" points="864.6,716.8 853.7,747.4 829.8,725.6 			"/>
			<polygon class="st145" points="864.6,839.9 800.6,821.1 824.1,807.2 			"/>
			<polygon class="st146" points="862.7,595.1 853.6,608.4 832.5,594.6 			"/>
			<polygon class="st147" points="861.5,873.6 827.1,889.6 777.4,884.3 833,873.6 			"/>
			<polygon class="st148" points="860.4,961.8 805,1002.8 836.1,936.6 			"/>
			<polygon class="st149" points="858.1,906.6 829.3,911.6 814.3,922.2 814.3,911.6 829.3,903.5 			"/>
			<polygon class="st150" points="858.1,906.6 829.3,903.5 795.8,898 827.1,889.6 			"/>
			<polygon class="st151" points="856.9,564.7 857.5,569.5 823.8,566.9 			"/>
			<polygon class="st152" points="857.5,569.5 848.1,581.5 816.8,582.8 821.7,572.2 			"/>
			<polygon class="st153" points="857.5,569.5 821.7,572.2 823.8,566.9 			"/>
			<polygon class="st154" points="856.9,564.7 823.8,566.9 817.5,553.4 			"/>
			<polygon class="st155" points="844.7,676.4 855,711.5 825.4,688 			"/>
			<polygon class="st156" points="855,711.5 814.3,717.7 825.4,688 			"/>
			<polygon class="st157" points="843.7,420.4 854.2,463.1 835.5,445.5 			"/>
			<polygon class="st158" points="854.2,463.1 800.4,487.3 835.5,445.5 			"/>
			<polygon class="st159" points="853.7,747.4 819,745.4 805.8,721.5 829.8,725.6 			"/>
			<polygon class="st160" points="853.6,608.4 834.3,612.9 816.5,609.3 832.5,594.6 			"/>
			<polygon class="st113" points="848.9,630.1 852.8,654.7 839.5,639 			"/>
			<polygon class="st161" points="852.8,654.7 844.7,676.4 825.4,688 			"/>
			<polygon class="st161" points="852.8,654.7 825.4,688 822,642.3 832.1,642 			"/>
			<polygon class="st153" points="852.8,654.7 832.1,642 839.5,639 			"/>
			<polygon class="st162" points="848.9,630.1 839.5,639 834.3,612.9 			"/>
			<polygon class="st163" points="848.1,581.5 832.5,594.6 816.8,582.8 			"/>
			<polygon class="st164" points="843.7,420.4 835.5,445.5 800.4,487.3 773.8,495.3 793.6,416.9 			"/>
			<polygon class="st165" points="829.3,911.6 842.2,928.1 836.1,936.6 814.3,922.2 			"/>
			<polygon class="st166" points="834.3,612.9 839.5,639 832.1,642 829.9,624.8 			"/>
			<polygon class="st167" points="836.1,936.6 805,1002.8 814.3,957.7 			"/>
			<polygon class="st168" points="836.1,936.6 814.3,957.7 800.6,949.2 			"/>
			<polygon class="st169" points="836.1,936.6 800.6,949.2 793.4,928.1 793.4,908.3 829.3,903.5 814.3,911.6 814.3,922.2 			"/>
			<polygon class="st170" points="834.3,612.9 829.9,624.8 816.5,609.3 			"/>
			<polygon class="st171" points="800.6,821.1 833,873.6 777.4,884.3 765.8,815.6 			"/>
			<polygon class="st172" points="832.5,594.6 816.5,609.3 814.3,598.2 			"/>
			<polygon class="st173" points="832.5,594.6 814.3,598.2 815.7,590.5 816.8,582.8 			"/>
			<polygon class="st174" points="829.9,624.8 832.1,642 823.4,621.2 			"/>
			<polygon class="st175" points="823.4,621.2 832.1,642 822,642.3 			"/>
			<polygon class="st176" points="829.9,624.8 823.4,621.2 816.5,609.3 			"/>
			<polygon class="st177" points="829.3,903.5 793.4,908.3 782.5,901.6 795.8,898 			"/>
			<polygon class="st178" points="827.1,889.6 795.8,898 777.4,884.3 			"/>
			<polygon class="st179" points="822,642.3 825.4,688 803.9,683.8 			"/>
			<polygon class="st180" points="825.4,688 814.3,717.7 803.9,683.8 			"/>
			<polygon class="st181" points="825.2,508.6 817.5,553.4 800.8,540.6 			"/>
			<polygon class="st182" points="825.2,508.6 800.8,540.6 798.6,532.7 807.2,498.9 			"/>
			<polygon class="st183" points="817.7,771.1 824.1,807.2 810.3,792.6 			"/>
			<polygon class="st184" points="824.1,807.2 800.6,821.1 810.3,792.6 			"/>
			<polygon class="st185" points="817.5,553.4 823.8,566.9 783.6,585.7 			"/>
			<polygon class="st186" points="823.8,566.9 821.7,572.2 783.6,585.7 			"/>
			<polygon class="st187" points="816.5,609.3 823.4,621.2 804.4,629.8 			"/>
			<polygon class="st188" points="823.4,621.2 822,642.3 817.5,636.3 			"/>
			<polygon class="st189" points="823.4,621.2 817.5,636.3 804.4,629.8 			"/>
			<polygon class="st179" points="817.5,636.3 822,642.3 803.9,683.8 815.5,642.9 			"/>
			<polygon class="st190" points="821.7,572.2 816.8,582.8 783.6,585.7 			"/>
			<polygon class="st191" points="805.8,721.5 819,745.4 782,723.5 			"/>
			<polygon class="st192" points="817.7,771.1 810.3,792.6 800.6,821.1 795.8,778.9 			"/>
			<polygon class="st193" points="817.7,771.1 795.8,778.9 773.9,773.7 			"/>
			<polygon class="st194" points="817.7,771.1 773.9,773.7 784.2,743.2 			"/>
			<polygon class="st195" points="817.5,636.3 815.5,642.9 806.9,638.4 			"/>
			<polygon class="st196" points="817.5,636.3 806.9,638.4 804.4,629.8 			"/>
			<polygon class="st185" points="817.5,553.4 783.6,585.7 753.1,641.7 690.5,675.4 713.1,652.3 			"/>
			<polygon class="st197" points="817.5,553.4 713.1,652.3 746.4,601.3 			"/>
			<polygon class="st198" points="817.5,553.4 746.4,601.3 764.7,576.1 786.5,551 800.8,540.6 			"/>
			<polygon class="st199" points="816.8,582.8 815.7,590.5 804.6,588.7 			"/>
			<polygon class="st200" points="816.8,582.8 804.6,588.7 815.7,590.5 779.2,606.6 783.6,585.7 			"/>
			<polygon class="st201" points="814.3,598.2 816.5,609.3 799.5,613.8 			"/>
			<polygon class="st202" points="816.5,609.3 804.4,629.8 806.9,638.4 784.4,638.4 			"/>
			<polygon class="st161" points="816.5,609.3 784.4,638.4 799.5,613.8 			"/>
			<polygon class="st203" points="815.7,590.5 814.3,598.2 779.2,606.6 			"/>
			<polygon class="st161" points="815.5,642.9 803.9,683.8 785.4,659.8 			"/>
			<polygon class="st204" points="815.5,642.9 785.4,659.8 806.9,638.4 			"/>
			<polygon class="st205" points="814.3,957.7 805,1002.8 793.4,974 			"/>
			<polygon class="st206" points="814.3,598.2 799.5,613.8 779.2,606.6 			"/>
			<polygon class="st207" points="814.3,957.7 793.4,974 769,961.8 			"/>
			<polygon class="st208" points="814.3,957.7 769,961.8 800.6,949.2 			"/>
			<polygon class="st209" points="803.9,683.8 814.3,717.7 786.9,707 			"/>
			<polygon class="st210" points="814.3,717.7 805.8,721.5 782,723.5 765.8,711.1 756,664.8 770.1,690.1 786.9,707 			"/>
			<polygon class="st211" points="808,750 784.2,743.2 782,723.5 			"/>
			<polygon class="st212" points="800.4,487.3 807.2,498.9 773.8,495.3 			"/>
			<polygon class="st213" points="807.2,498.9 798.6,532.7 785.4,522.4 			"/>
			<polygon class="st214" points="807.2,498.9 785.4,522.4 757.3,519.9 773.8,495.3 			"/>
			<polygon class="st161" points="806.9,638.4 785.4,659.8 784.4,638.4 			"/>
			<polygon class="st215" points="793.4,974 805,1002.8 782.5,980.8 			"/>
			<polygon class="st216" points="805,1002.8 715.5,1028 727.8,991.1 742.4,986.2 			"/>
			<polygon class="st217" points="805,1002.8 742.4,986.2 782.5,980.8 			"/>
			<polygon class="st218" points="785.4,659.8 803.9,683.8 770.1,690.1 			"/>
			<polygon class="st219" points="803.9,683.8 786.9,707 770.1,690.1 			"/>
			<polygon class="st220" points="798.6,532.7 800.8,540.6 786.5,551 			"/>
			<polygon class="st221" points="795.8,778.9 800.6,821.1 765.8,815.6 			"/>
			<polygon class="st222" points="793.4,928.1 800.6,949.2 782.5,942.5 			"/>
			<polygon class="st223" points="800.6,949.2 769,961.8 782.5,942.5 			"/>
			<polygon class="st224" points="799.5,613.8 784.4,638.4 779.2,606.6 			"/>
			<polygon class="st225" points="798.6,532.7 786.5,551 785.4,522.4 			"/>
			<polygon class="st226" points="795.8,778.9 765.8,815.6 773.9,773.7 			"/>
			<polygon class="st227" points="795.8,898 782.5,901.6 777.4,884.3 			"/>
			<polygon class="st228" points="793.6,416.9 773.8,495.3 725.4,405.7 			"/>
			<polygon class="st229" points="793.4,908.3 793.4,928.1 774.6,922.2 			"/>
			<polygon class="st230" points="793.4,928.1 782.5,942.5 747.8,961.8 731.6,976.5 742.4,986.2 727.8,991.1 724.8,961.8
				750.4,942.9 760,945.2 772.8,935.3 774.6,922.2 			"/>
			<polygon class="st231" points="793.4,908.3 774.6,922.2 750.4,942.9 718.2,938.9 782.5,901.6 			"/>
			<polygon class="st232" points="793.4,974 782.5,980.8 769,961.8 			"/>
			<polygon class="st233" points="785.4,522.4 786.5,551 757.3,519.9 			"/>
			<polygon class="st234" points="786.5,551 764.7,576.1 757.3,519.9 			"/>
			<polygon class="st235" points="784.4,638.4 785.4,659.8 756,664.8 779.2,606.6 			"/>
			<polygon class="st236" points="785.4,659.8 770.1,690.1 756,664.8 			"/>
			<polygon class="st237" points="782,723.5 784.2,743.2 765.8,721 			"/>
			<polygon class="st238" points="784.2,743.2 773.9,773.7 753.1,721.5 			"/>
			<polygon class="st239" points="784.2,743.2 753.1,721.5 765.8,721 			"/>
			<polygon class="st240" points="783.6,585.7 779.2,606.6 753.1,641.7 			"/>
			<polygon class="st241" points="777.4,884.3 782.5,901.6 718.2,938.9 			"/>
			<polygon class="st242" points="782.5,942.5 769,961.8 747.8,961.8 			"/>
			<polygon class="st243" points="769,961.8 782.5,980.8 742.4,986.2 747.8,961.8 			"/>
			<polygon class="st244" points="782,723.5 765.8,721 765.8,711.1 			"/>
			<polygon class="st245" points="779.2,606.6 756,664.8 753.1,641.7 			"/>
			<polygon class="st246" points="765.8,815.6 777.4,884.3 735.1,864.2 			"/>
			<polygon class="st247" points="777.4,884.3 718.2,938.9 735.1,864.2 			"/>
			<polygon class="st248" points="774.6,922.2 772.8,935.3 760,945.2 750.4,942.9 			"/>
			<polygon class="st249" points="753.1,721.5 773.9,773.7 739.9,750 			"/>
			<polygon class="st250" points="773.9,773.7 765.8,815.6 739.9,750 			"/>
			<polygon class="st251" points="725.4,405.7 773.8,495.3 755.8,490.3 716.1,464.5 			"/>
			<polygon class="st252" points="773.8,495.3 757.3,519.9 755.8,490.3 			"/>
			<polygon class="st253" points="765.8,711.1 765.8,721 742.9,677.6 			"/>
			<polygon class="st254" points="756,664.8 765.8,711.1 742.9,677.6 			"/>
			<polygon class="st255" points="742.9,677.6 765.8,721 747.4,695.9 			"/>
			<polygon class="st256" points="747.4,695.9 765.8,721 753.1,721.5 			"/>
			<polygon class="st257" points="739.9,750 765.8,815.6 742.4,778 			"/>
			<polygon class="st258" points="742.4,778 765.8,815.6 727.5,833.7 			"/>
			<polygon class="st259" points="765.8,815.6 735.1,864.2 727.5,833.7 			"/>
			<polygon class="st260" points="757.3,519.9 764.7,576.1 742.6,589.6 			"/>
			<polygon class="st261" points="764.7,576.1 746.4,601.3 742.6,589.6 			"/>
			<polygon class="st262" points="755.8,490.3 757.3,519.9 733.2,527.5 			"/>
			<polygon class="st263" points="757.3,519.9 742.6,589.6 735.4,569.5 			"/>
			<polygon class="st264" points="757.3,519.9 735.4,569.5 742.6,589.6 713.1,560.1 724.9,539.5 733.2,527.5 			"/>
			<polygon class="st265" points="753.1,641.7 756,664.8 742.9,677.6 			"/>
			<polygon class="st266" points="755.8,490.3 733.2,527.5 728.3,508.6 			"/>
			<polygon class="st267" points="755.8,490.3 728.3,508.6 715,493.2 			"/>
			<polygon class="st268" points="755.8,490.3 715,493.2 716.1,464.5 			"/>
			<polygon class="st269" points="753.1,641.7 742.9,677.6 747.4,695.9 726.7,670 			"/>
			<polygon class="st270" points="747.4,695.9 753.1,721.5 726.7,670 			"/>
			<polygon class="st271" points="726.7,670 753.1,721.5 713.3,721.2 			"/>
			<polygon class="st272" points="753.1,721.5 739.9,750 726.7,747.4 			"/>
			<polygon class="st273" points="753.1,641.7 726.7,670 690.5,675.4 			"/>
			<polygon class="st274" points="753.1,721.5 726.7,747.4 713.3,721.2 			"/>
			<polygon class="st275" points="750.4,942.9 724.8,961.8 710.6,975.8 697,983.5 681.5,970.4 718.2,938.9 			"/>
			<polygon class="st276" points="747.8,961.8 742.4,986.2 731.6,976.5 			"/>
			<polygon class="st277" points="742.6,589.6 746.4,601.3 713.1,652.3 			"/>
			<polygon class="st278" points="742.6,589.6 713.1,652.3 703.4,626.1 			"/>
			<polygon class="st279" points="742.6,589.6 703.4,626.1 695.3,595.1 			"/>
			<polygon class="st280" points="742.6,589.6 695.3,595.1 713.1,560.1 			"/>
			<polygon class="st281" points="739.9,750 742.4,778 726.7,747.4 			"/>
			<polygon class="st282" points="726.7,747.4 742.4,778 727.5,833.7 			"/>
			<polygon class="st283" points="727.5,833.7 735.1,864.2 718.2,938.9 650,953.7 661.1,931.7 708.9,864.2 			"/>
			<polygon class="st284" points="728.3,508.6 733.2,527.5 724.9,539.5 			"/>
			<polygon class="st285" points="728.3,508.6 724.9,539.5 715,493.2 			"/>
			<polygon class="st286" points="724.8,961.8 727.8,991.1 710.6,975.8 			"/>
			<polygon class="st206" points="727.8,991.1 715.5,1028 700.1,1013.9 			"/>
			<polygon class="st287" points="727.8,991.1 700.1,1013.9 689.6,1002.8 697,983.5 710.6,975.8 			"/>
			<polygon class="st288" points="726.7,799.5 727.5,833.7 711.6,835.2 			"/>
			<polygon class="st289" points="727.5,833.7 708.9,864.2 711.6,835.2 			"/>
			<polygon class="st290" points="726.7,747.4 726.7,799.5 693.4,821.1 			"/>
			<polygon class="st291" points="726.7,670 713.3,721.2 710.4,682.4 			"/>
			<polygon class="st292" points="713.3,721.2 726.7,747.4 693.4,821.1 			"/>
			<polygon class="st293" points="726.7,799.5 711.6,835.2 708.9,864.2 693.4,821.1 			"/>
			<polygon class="st294" points="726.7,670 710.4,682.4 713.3,721.2 690.5,675.4 			"/>
			<polygon class="st295" points="725.4,405.7 716.1,464.5 680.6,412.7 			"/>
			<polygon class="st296" points="715,493.2 724.9,539.5 693.4,534.6 			"/>
			<polygon class="st297" points="724.9,539.5 713.1,560.1 697.9,543.4 			"/>
			<polygon class="st298" points="724.9,539.5 697.9,543.4 693.4,534.6 			"/>
			<polygon class="st299" points="718.2,938.9 681.5,970.4 650,997.5 650,953.7 			"/>
			<polygon class="st300" points="680.6,412.7 716.1,464.5 650.3,453.3 			"/>
			<polygon class="st301" points="716.1,464.5 715,493.2 693.4,534.6 649.7,509.4 			"/>
			<polygon class="st302" points="716.1,464.5 649.7,509.4 650.3,453.3 			"/>
			<polygon class="st303" points="715.5,1028 693.4,1042.4 700.1,1013.9 			"/>
			<polygon class="st304" points="690.5,675.4 713.3,721.2 669.9,737.7 			"/>
			<polygon class="st305" points="713.3,721.2 693.4,821.1 685.2,792.6 			"/>
			<polygon class="st306" points="713.3,721.2 685.2,792.6 671.9,806.1 669.9,737.7 			"/>
			<polygon class="st307" points="713.1,560.1 695.3,595.1 677.7,568.2 			"/>
			<polygon class="st308" points="703.4,626.1 713.1,652.3 656.9,656.8 			"/>
			<polygon class="st309" points="713.1,560.1 677.7,568.2 697.9,543.4 			"/>
			<polygon class="st310" points="713.1,652.3 690.5,675.4 656.9,656.8 			"/>
			<polygon class="st311" points="693.4,821.1 708.9,864.2 661.1,931.7 			"/>
			<polygon class="st312" points="695.3,595.1 703.4,626.1 661.5,631.3 			"/>
			<polygon class="st313" points="703.4,626.1 656.9,656.8 663.7,639.6 661.5,631.3 			"/>
			<polygon class="st314" points="700.1,1013.9 693.4,1042.4 684.1,1028 			"/>
			<polygon class="st315" points="700.1,1013.9 684.1,1028 666.4,1034.8 689.6,1002.8 			"/>
			<polygon class="st316" points="693.4,534.6 697.9,543.4 677.7,568.2 			"/>
			<polygon class="st317" points="697,983.5 689.6,1002.8 673.4,995.2 			"/>
			<polygon class="st318" points="697,983.5 673.4,995.2 657.8,1002.8 649.7,1006.9 650,997.5 681.5,970.4 			"/>
			<polygon class="st319" points="677.7,568.2 695.3,595.1 661.5,631.3 			"/>
			<polygon class="st320" points="693.4,534.6 677.7,568.2 649.7,509.4 			"/>
			<polygon class="st321" points="685.2,792.6 693.4,821.1 677.3,817.5 			"/>
			<polygon class="st322" points="693.4,821.1 661.1,931.7 662.3,884.3 			"/>
			<polygon class="st323" points="693.4,821.1 662.3,884.3 657.8,835.2 			"/>
			<polygon class="st324" points="684.1,1028 693.4,1042.4 666.4,1034.8 			"/>
			<polygon class="st325" points="693.4,821.1 657.8,835.2 677.3,817.5 			"/>
			<polygon class="st326" points="693.4,1042.4 650,1059.8 649.7,1024.9 666.4,1034.8 			"/>
			<polygon class="st327" points="690.5,675.4 669.9,737.7 662.9,724.4 			"/>
			<polygon class="st328" points="690.5,675.4 662.9,724.4 662.9,724.4 650,747.4 650.3,682.4 			"/>
			<polygon class="st329" points="690.5,675.4 650.3,682.4 656.9,656.8 			"/>
			<polygon class="st330" points="689.6,1002.8 666.4,1034.8 649.7,1024.9 657.8,1002.8 			"/>
			<polygon class="st331" points="689.6,1002.8 657.8,1002.8 673.4,995.2 			"/>
			<polygon class="st332" points="685.2,792.6 677.3,817.5 671.9,806.1 			"/>
			<polygon class="st333" points="680.6,412.7 650.3,453.3 650.3,410.6 			"/>
			<polygon class="st334" points="649.7,509.4 677.7,568.2 649.7,565.4 			"/>
			<polygon class="st335" points="677.7,568.2 661.5,631.3 649.8,578.6 			"/>
			<polygon class="st336" points="677.7,568.2 649.8,578.6 649.7,565.4 			"/>
			<polygon class="st337" points="671.9,806.1 677.3,817.5 657.8,835.2 			"/>
			<polygon class="st338" points="669.9,737.7 671.9,806.1 660.5,753.1 			"/>
			<polygon class="st339" points="660.5,753.1 671.9,806.1 657.8,835.2 			"/>
			<polygon class="st340" points="662.9,724.4 669.9,737.7 660.5,753.1 662.9,724.4 			"/>
			<polygon class="st341" points="661.5,631.3 663.7,639.6 649.8,622.7 			"/>
			<polygon class="st342" points="649.8,622.7 663.7,639.6 649.8,655.4 			"/>
			<polygon class="st342" points="663.7,639.6 656.9,656.8 649.8,655.4 			"/>
			<polygon class="st343" points="650,747.4 662.9,724.4 660.5,753.1 			"/>
			<polygon class="st344" points="657.8,835.2 662.3,884.3 649.7,847.8 			"/>
			<polygon class="st345" points="649.7,847.8 662.3,884.3 650,953.7 650.6,899.6 			"/>
			<polygon class="st346" points="662.3,884.3 661.1,931.7 650,953.7 			"/>
			<polygon class="st347" points="649.8,578.6 661.5,631.3 649.8,622.7 			"/>
			<polygon class="st348" points="660.5,753.1 657.8,835.2 650,747.4 			"/>
			<polygon class="st349" points="650,747.4 657.8,835.2 649.7,847.8 			"/>
			<polygon class="st350" points="657.8,1002.8 649.7,1024.9 649.7,1006.9 			"/>
			<polygon class="st351" points="656.9,656.8 650.3,682.4 649.8,655.4 			"/>
		</g>
		<g>
		</g>
	</g>
	<polygon class="st352" points="805.9,721.5 779.5,710 760.9,688 756,664.8 770.1,690.1 786.9,707 814.3,717.7 	"/>
	<g id="XMLID_1_">
		<g>
			<polygon class="st0" points="153.9,317.5 188.3,372.8 192.3,303.5 			"/>
			<polygon class="st1" points="192.3,303.5 188.3,372.8 294.3,400.1 244.2,334.3 343.8,392.4 			"/>
			<polygon class="st2" points="188.3,372.8 195.5,420.3 294.3,400.1 			"/>
			<polygon class="st3" points="192.3,303.5 343.8,392.4 271,314 			"/>
			<polygon class="st4" points="195.5,420.3 251.6,528 246.9,435.9 			"/>
			<polygon class="st5" points="195.5,420.3 246.9,435.9 294.3,400.1 			"/>
			<polygon class="st6" points="244.2,334.3 294.3,400.1 343.8,392.4 			"/>
			<polygon class="st7" points="246.9,435.9 251.6,528 289.2,518.1 			"/>
			<polygon class="st8" points="246.9,435.9 289.2,518.1 297.8,494 			"/>
			<polygon class="st9" points="246.9,435.9 297.8,494 306.2,475.2 			"/>
			<polygon class="st10" points="246.9,435.9 306.2,475.2 294.3,400.1 			"/>
			<polygon class="st11" points="251.6,528 282.2,557 289.2,518.1 			"/>
			<polygon class="st12" points="275.2,646.9 270.3,721.5 301.3,717.3 			"/>
			<polygon class="st13" points="270.3,721.5 301.3,759.9 301.3,717.3 			"/>
			<polygon class="st14" points="271,314 343.8,392.4 406.2,390.3 			"/>
			<polygon class="st15" points="271,314 406.2,390.3 392.8,330.1 			"/>
			<polygon class="st16" points="275.2,604.5 275.2,646.9 286,606 			"/>
			<polygon class="st17" points="282.2,557 275.2,604.5 286,606 			"/>
			<polygon class="st18" points="286,606 275.2,646.9 302.2,607.9 			"/>
			<polygon class="st19" points="302.2,607.9 275.2,646.9 301.3,717.3 302.2,630.3 			"/>
			<polygon class="st20" points="289.2,518.1 282.2,557 346.6,540 322.5,537.9 306.2,531.4 306.8,530.8 			"/>
			<polygon class="st21" points="282.2,557 286,606 311.9,586.6 			"/>
			<polygon class="st22" points="282.2,557 311.9,586.6 346.6,540 			"/>
			<polygon class="st23" points="286,606 302.2,607.9 311.9,586.6 			"/>
			<polygon class="st24" points="297.8,494 289.2,518.1 306.8,530.8 307.3,530.3 			"/>
			<polygon class="st25" points="294.3,400.1 306.2,475.2 325.1,458.7 			"/>
			<polygon class="st26" points="294.3,400.1 325.1,458.7 343.8,392.4 			"/>
			<polygon class="st27" points="306.2,475.2 297.8,494 307.3,530.3 322.5,513.8 			"/>
			<polygon class="st28" points="301.3,717.3 301.3,759.9 328.9,758.3 			"/>
			<polygon class="st29" points="302.2,630.3 301.3,717.3 314.8,626.2 			"/>
			<polygon class="st30" points="314.8,626.2 301.3,717.3 323.8,685.5 			"/>
			<polygon class="st31" points="323.8,685.5 301.3,717.3 351.8,733.5 			"/>
			<polygon class="st32" points="301.3,717.3 328.9,758.3 351.8,733.5 			"/>
			<polygon class="st33" points="301.3,759.9 323.8,805.4 328.9,758.3 			"/>
			<polygon class="st34" points="302.2,607.9 302.2,630.3 314.8,626.2 			"/>
			<polygon class="st35" points="311.9,586.6 302.2,607.9 314.8,626.2 			"/>
			<polygon class="st36" points="306.2,475.2 322.5,513.8 332.9,502.1 			"/>
			<polygon class="st37" points="306.2,475.2 332.9,502.1 349.5,471 325.1,458.7 			"/>
			<polygon class="st38" points="306.2,531.4 322.5,537.9 322.5,513.8 307.3,530.3 307.6,531.4 306.8,530.8 			"/>
			<polygon class="st39" points="346.6,540 311.9,586.6 344,571.7 388.3,526.2 			"/>
			<polygon class="st40" points="311.9,586.6 314.8,626.2 344,571.7 			"/>
			<polygon class="st41" points="344,571.7 314.8,626.2 378.4,606 			"/>
			<polygon class="st42" points="314.8,626.2 323.8,685.5 378.4,606 			"/>
			<polygon class="st43" points="322.5,513.8 322.5,537.9 332.9,502.1 			"/>
			<polygon class="st44" points="332.9,502.1 322.5,537.9 346.6,540 			"/>
			<polygon class="st45" points="378.4,606 323.8,685.5 393.4,638.3 			"/>
			<polygon class="st46" points="323.8,685.5 351.8,733.5 395.7,690.4 			"/>
			<polygon class="st47" points="328.9,758.3 323.8,805.4 351.8,785.2 			"/>
			<polygon class="st48" points="323.8,805.4 328.9,849 343.1,831.6 			"/>
			<polygon class="st49" points="323.8,805.4 343.1,831.6 374.1,811.3 			"/>
			<polygon class="st50" points="323.8,685.5 395.7,690.4 393.4,638.3 			"/>
			<polygon class="st51" points="323.8,805.4 374.1,811.3 351.8,785.2 			"/>
			<polygon class="st52" points="343.8,392.4 325.1,458.7 346.9,420.7 			"/>
			<polygon class="st53" points="346.9,420.7 325.1,458.7 354,455.9 350.9,437.7 372.1,452.4 385.1,436.3 			"/>
			<polygon class="st54" points="325.1,458.7 349.5,471 376.6,484.6 354,455.9 			"/>
			<polygon class="st55" points="343.1,831.6 328.9,849 354.2,859.8 			"/>
			<polygon class="st56" points="328.9,849 357.5,889.6 354.2,859.8 			"/>
			<polygon class="st57" points="328.9,758.3 351.8,785.2 386.1,752.5 			"/>
			<polygon class="st58" points="328.9,758.3 386.1,752.5 351.8,733.5 			"/>
			<polygon class="st59" points="349.5,471 332.9,502.1 364.3,508.6 			"/>
			<polygon class="st60" points="332.9,502.1 346.6,540 364.3,508.6 			"/>
			<polygon class="st61" points="343.1,831.6 354.2,859.8 367.4,840 			"/>
			<polygon class="st62" points="343.1,831.6 367.4,840 374.1,811.3 			"/>
			<polygon class="st63" points="343.8,392.4 346.9,420.7 367.7,419.4 			"/>
			<polygon class="st64" points="343.8,392.4 367.7,419.4 346.9,420.7 397.4,425.6 407.6,408.3 			"/>
			<polygon class="st65" points="343.8,392.4 407.6,408.3 456.3,420.5 406.2,390.3 			"/>
			<polygon class="st66" points="344,571.7 378.4,606 388.3,590.6 426.3,555.2 438.1,534.2 			"/>
			<polygon class="st67" points="344,571.7 438.1,534.2 388.3,526.2 			"/>
			<polygon class="st68" points="364.3,508.6 346.6,540 388.3,526.2 			"/>
			<polygon class="st69" points="346.9,420.7 385.1,436.3 397.4,425.6 			"/>
			<polygon class="st70" points="349.5,471 364.3,508.6 388.3,526.2 376.6,484.6 			"/>
			<polygon class="st71" points="350.9,437.7 354,455.9 372.1,452.4 			"/>
			<polygon class="st72" points="351.8,733.5 386.1,752.5 413.6,725.7 			"/>
			<polygon class="st73" points="351.8,733.5 413.6,725.7 395.7,690.4 			"/>
			<polygon class="st74" points="351.8,785.2 374.1,811.3 394,792.7 			"/>
			<polygon class="st75" points="351.8,785.2 394,792.7 421,771.2 			"/>
			<polygon class="st76" points="351.8,785.2 421,771.2 386.1,752.5 			"/>
			<polygon class="st77" points="354,455.9 376.6,484.6 406.2,499.5 415.1,475.3 415,475.2 372.1,452.4 			"/>
			<polygon class="st78" points="367.4,840 354.2,859.8 357.5,889.6 			"/>
			<polygon class="st79" points="367.4,840 357.5,889.6 435.4,840 			"/>
			<polygon class="st80" points="357.5,889.6 396.5,931.8 413,908.3 424.9,881.7 			"/>
			<polygon class="st81" points="357.5,889.6 424.9,881.7 438.5,873.7 416.2,873.7 			"/>
			<polygon class="st82" points="357.5,889.6 416.2,873.7 435.4,840 			"/>
			<polygon class="st83" points="374.1,811.3 367.4,840 482.3,771.2 			"/>
			<polygon class="st84" points="367.4,840 435.4,840 475.9,807.3 			"/>
			<polygon class="st85" points="367.4,840 475.9,807.3 482.3,771.2 			"/>
			<polygon class="st86" points="385.1,436.3 372.1,452.4 415,475.2 			"/>
			<polygon class="st87" points="374.1,811.3 482.3,771.2 394,792.7 			"/>
			<polygon class="st88" points="376.6,484.6 388.3,526.2 406.2,499.5 			"/>
			<polygon class="st89" points="388.3,590.6 378.4,606 393.4,638.3 			"/>
			<polygon class="st90" points="385.1,436.3 415.1,475.2 424,486.8 433.3,481.7 			"/>
			<polygon class="st91" points="385.1,436.3 433.3,481.7 492.8,499 499.6,487.4 445.8,463.1 			"/>
			<polygon class="st92" points="385.1,436.3 445.8,463.1 456.3,420.5 			"/>
			<polygon class="st93" points="385.1,436.3 456.3,420.5 397.4,425.6 			"/>
			<polygon class="st94" points="386.1,752.5 421,771.2 446.3,747.4 			"/>
			<polygon class="st95" points="386.1,752.5 446.3,747.4 413.6,725.7 			"/>
			<polygon class="st96" points="406.2,499.5 388.3,526.2 438.1,534.2 429.5,494.9 424,486.8 			"/>
			<polygon class="st97" points="388.3,590.6 393.4,638.3 411.9,683.6 405.7,656.3 404,634.3 			"/>
			<polygon class="st98" points="388.3,590.6 404,634.3 408.6,618.9 419.3,599 			"/>
			<polygon class="st99" points="388.3,590.6 419.3,599 442.5,569.6 			"/>
			<polygon class="st100" points="388.3,590.6 442.5,569.6 443.1,564.8 			"/>
			<polygon class="st101" points="388.3,590.6 443.1,564.8 426.3,555.2 			"/>
			<polygon class="st102" points="393.4,638.3 395.7,690.4 411.9,683.6 			"/>
			<polygon class="st58" points="394,792.7 482.3,771.2 421,771.2 			"/>
			<polygon class="st103" points="395.7,690.4 413.6,725.7 411.9,683.6 			"/>
			<polygon class="st104" points="413,908.3 396.5,931.8 422.4,918.2 			"/>
			<polygon class="st105" points="396.5,931.8 429.5,953.8 422.4,918.2 			"/>
			<polygon class="st106" points="407.6,408.3 397.4,425.6 456.3,420.5 			"/>
			<polygon class="st107" points="408.6,618.9 404,634.3 417.5,633.7 			"/>
			<polygon class="st108" points="404,634.3 405.7,656.3 417.5,633.7 			"/>
			<polygon class="st109" points="417.5,633.7 405.7,656.3 419.3,672.6 			"/>
			<polygon class="st110" points="405.7,656.3 411.9,683.6 419.3,672.6 			"/>
			<polygon class="st111" points="415.1,475.3 406.2,499.5 424,486.8 			"/>
			<polygon class="st112" points="406.2,390.3 456.3,420.5 506.4,417 			"/>
			<polygon class="st113" points="419.3,599 408.6,618.9 417.5,633.7 			"/>
			<polygon class="st114" points="419.3,672.6 411.9,683.6 430.1,697.3 			"/>
			<polygon class="st115" points="411.9,683.6 413.6,725.7 435.4,716.9 425.9,703.8 			"/>
			<polygon class="st116" points="411.9,683.6 426,703.6 430.1,697.3 			"/>
			<polygon class="st117" points="424.9,881.7 413,908.3 472.9,889.6 			"/>
			<polygon class="st118" points="413,908.3 422.4,918.2 429.5,953.8 463.9,936.7 457.8,928.1 470.7,911.7 441.9,906.7 			"/>
			<polygon class="st119" points="413,908.3 441.9,906.7 472.9,889.6 			"/>
			<polygon class="st120" points="413.6,725.7 446.3,747.4 435.4,716.9 			"/>
			<polygon class="st121" points="435.4,840 416.2,873.7 438.5,873.7 467,873.7 499.4,821.2 			"/>
			<polygon class="st122" points="419.3,599 417.5,633.7 426.2,616.9 437.3,595.1 			"/>
			<polygon class="st123" points="426.2,616.9 417.5,633.7 451.1,630.2 465.7,612.9 426.4,617.1 			"/>
			<polygon class="st124" points="417.5,633.7 419.3,672.6 455.3,676.5 447.2,654.8 			"/>
			<polygon class="st125" points="417.5,633.7 447.2,654.8 451.1,630.2 			"/>
			<polygon class="st126" points="442.5,569.6 419.3,599 451.9,581.6 			"/>
			<polygon class="st127" points="419.3,672.6 430.1,697.3 455.3,676.5 			"/>
			<polygon class="st128" points="419.3,599 437.3,595.1 467.5,594.7 451.9,581.6 			"/>
			<polygon class="st129" points="421,771.2 482.3,771.2 515.8,743.3 492,750 518,723.6 481,745.5 			"/>
			<polygon class="st130" points="421,771.2 481,745.5 446.3,747.4 			"/>
			<polygon class="st131" points="424,486.8 429.5,494.9 433.3,481.7 			"/>
			<polygon class="st132" points="424.9,881.7 472.9,889.6 438.5,873.7 			"/>
			<polygon class="st133" points="426,703.6 426.2,703.9 445,711.5 430.1,697.3 			"/>
			<polygon class="st134" points="437.3,595.1 426.2,616.9 426.4,617.1 446.4,608.5 			"/>
			<polygon class="st135" points="426.2,703.9 435.4,716.9 470.2,725.7 494.2,721.5 485.7,717.8 445,711.5 			"/>
			<polygon class="st136" points="438.1,534.2 426.3,555.2 482.5,553.5 			"/>
			<polygon class="st137" points="426.3,555.2 443.1,564.8 482.5,553.5 			"/>
			<polygon class="st138" points="426.4,617.1 465.7,612.9 446.4,608.5 			"/>
			<polygon class="st139" points="433.3,481.7 429.5,494.9 457.9,534.5 438.1,534.2 482.5,553.5 474.8,508.6 			"/>
			<polygon class="st140" points="429.5,494.9 438.1,534.2 457.9,534.5 			"/>
			<polygon class="st141" points="429.5,953.8 439.6,961.9 463.9,936.7 			"/>
			<polygon class="st142" points="430.1,697.3 445,711.5 455.3,676.5 			"/>
			<polygon class="st143" points="433.3,481.7 474.8,508.6 492.8,499 			"/>
			<polygon class="st144" points="435.4,716.9 446.3,747.4 470.2,725.7 			"/>
			<polygon class="st145" points="435.4,840 499.4,821.2 475.9,807.3 			"/>
			<polygon class="st146" points="437.3,595.1 446.4,608.5 467.5,594.7 			"/>
			<polygon class="st147" points="438.5,873.7 472.9,889.6 522.6,884.4 467,873.7 			"/>
			<polygon class="st148" points="439.6,961.9 495,1002.9 463.9,936.7 			"/>
			<polygon class="st149" points="441.9,906.7 470.7,911.7 485.7,922.3 485.7,911.7 470.7,903.5 			"/>
			<polygon class="st150" points="441.9,906.7 470.7,903.5 504.2,898.1 472.9,889.6 			"/>
			<polygon class="st151" points="443.1,564.8 442.5,569.6 476.2,567 			"/>
			<polygon class="st152" points="442.5,569.6 451.9,581.6 483.2,582.9 478.3,572.3 			"/>
			<polygon class="st153" points="442.5,569.6 478.3,572.3 476.2,567 			"/>
			<polygon class="st154" points="443.1,564.8 476.2,567 482.5,553.5 			"/>
			<polygon class="st155" points="455.3,676.5 445,711.5 474.6,688.1 			"/>
			<polygon class="st156" points="445,711.5 485.7,717.8 474.6,688.1 			"/>
			<polygon class="st157" points="456.3,420.5 445.8,463.1 464.5,445.6 			"/>
			<polygon class="st158" points="445.8,463.1 499.6,487.4 464.5,445.6 			"/>
			<polygon class="st159" points="446.3,747.4 481,745.5 494.2,721.5 470.2,725.7 			"/>
			<polygon class="st160" points="446.4,608.5 465.7,612.9 483.5,609.4 467.5,594.7 			"/>
			<polygon class="st113" points="451.1,630.2 447.2,654.8 460.5,639.1 			"/>
			<polygon class="st161" points="447.2,654.8 455.3,676.5 474.6,688.1 			"/>
			<polygon class="st161" points="447.2,654.8 474.6,688.1 478,642.3 467.9,642 			"/>
			<polygon class="st153" points="447.2,654.8 467.9,642 460.5,639.1 			"/>
			<polygon class="st162" points="451.1,630.2 460.5,639.1 465.7,612.9 			"/>
			<polygon class="st163" points="451.9,581.6 467.5,594.7 483.2,582.9 			"/>
			<polygon class="st164" points="456.3,420.5 464.5,445.6 499.6,487.4 526.2,495.4 506.4,417 			"/>
			<polygon class="st165" points="470.7,911.7 457.8,928.1 463.9,936.7 485.7,922.3 			"/>
			<polygon class="st166" points="465.7,612.9 460.5,639.1 467.9,642 470.1,624.8 			"/>
			<polygon class="st167" points="463.9,936.7 495,1002.9 485.7,957.8 			"/>
			<polygon class="st168" points="463.9,936.7 485.7,957.8 499.4,949.3 			"/>
			<polygon class="st169" points="463.9,936.7 499.4,949.3 506.6,928.1 506.6,908.3 470.7,903.5 485.7,911.7 485.7,922.3 			"/>
			<polygon class="st170" points="465.7,612.9 470.1,624.8 483.5,609.4 			"/>
			<polygon class="st171" points="499.4,821.2 467,873.7 522.6,884.4 534.2,815.7 			"/>
			<polygon class="st172" points="467.5,594.7 483.5,609.4 485.7,598.2 			"/>
			<polygon class="st173" points="467.5,594.7 485.7,598.2 484.3,590.6 483.2,582.9 			"/>
			<polygon class="st174" points="470.1,624.8 467.9,642 476.6,621.3 			"/>
			<polygon class="st175" points="476.6,621.3 467.9,642 478,642.3 			"/>
			<polygon class="st176" points="470.1,624.8 476.6,621.3 483.5,609.4 			"/>
			<polygon class="st177" points="470.7,903.5 506.6,908.3 517.5,901.6 504.2,898.1 			"/>
			<polygon class="st178" points="472.9,889.6 504.2,898.1 522.6,884.4 			"/>
			<polygon class="st179" points="478,642.3 474.6,688.1 496.1,683.9 			"/>
			<polygon class="st180" points="474.6,688.1 485.7,717.8 496.1,683.9 			"/>
			<polygon class="st181" points="474.8,508.6 482.5,553.5 499.2,540.7 			"/>
			<polygon class="st182" points="474.8,508.6 499.2,540.7 501.4,532.8 492.8,499 			"/>
			<polygon class="st183" points="482.3,771.2 475.9,807.3 489.7,792.7 			"/>
			<polygon class="st184" points="475.9,807.3 499.4,821.2 489.7,792.7 			"/>
			<polygon class="st185" points="482.5,553.5 476.2,567 516.4,585.8 			"/>
			<polygon class="st186" points="476.2,567 478.3,572.3 516.4,585.8 			"/>
			<polygon class="st187" points="483.5,609.4 476.6,621.3 495.6,629.9 			"/>
			<polygon class="st188" points="476.6,621.3 478,642.3 482.5,636.4 			"/>
			<polygon class="st189" points="476.6,621.3 482.5,636.4 495.6,629.9 			"/>
			<polygon class="st179" points="482.5,636.4 478,642.3 496.1,683.9 484.5,642.9 			"/>
			<polygon class="st190" points="478.3,572.3 483.2,582.9 516.4,585.8 			"/>
			<polygon class="st191" points="494.2,721.5 481,745.5 518,723.6 			"/>
			<polygon class="st192" points="482.3,771.2 489.7,792.7 499.4,821.2 504.2,779 			"/>
			<polygon class="st193" points="482.3,771.2 504.2,779 526.1,773.8 			"/>
			<polygon class="st194" points="482.3,771.2 526.1,773.8 515.8,743.3 			"/>
			<polygon class="st195" points="482.5,636.4 484.5,642.9 493.1,638.5 			"/>
			<polygon class="st196" points="482.5,636.4 493.1,638.5 495.6,629.9 			"/>
			<polygon class="st185" points="482.5,553.5 516.4,585.8 546.9,641.7 609.5,675.5 586.9,652.4 			"/>
			<polygon class="st197" points="482.5,553.5 586.9,652.4 553.6,601.4 			"/>
			<polygon class="st198" points="482.5,553.5 553.6,601.4 535.3,576.2 513.5,551.1 499.2,540.7 			"/>
			<polygon class="st199" points="483.2,582.9 484.3,590.6 495.4,588.8 			"/>
			<polygon class="st200" points="483.2,582.9 495.4,588.8 484.3,590.6 520.8,606.7 516.4,585.8 			"/>
			<polygon class="st201" points="485.7,598.2 483.5,609.4 500.5,613.8 			"/>
			<polygon class="st202" points="483.5,609.4 495.6,629.9 493.1,638.5 515.6,638.5 			"/>
			<polygon class="st161" points="483.5,609.4 515.6,638.5 500.5,613.8 			"/>
			<polygon class="st203" points="484.3,590.6 485.7,598.2 520.8,606.7 			"/>
			<polygon class="st161" points="484.5,642.9 496.1,683.9 514.6,659.9 			"/>
			<polygon class="st204" points="484.5,642.9 514.6,659.9 493.1,638.5 			"/>
			<polygon class="st205" points="485.7,957.8 495,1002.9 506.6,974.1 			"/>
			<polygon class="st206" points="485.7,598.2 500.5,613.8 520.8,606.7 			"/>
			<polygon class="st207" points="485.7,957.8 506.6,974.1 531,961.9 			"/>
			<polygon class="st208" points="485.7,957.8 531,961.9 499.4,949.3 			"/>
			<polygon class="st209" points="496.1,683.9 485.7,717.8 513.1,707.1 			"/>
			<polygon class="st210" points="485.7,717.8 494.2,721.5 518,723.6 534.2,711.1 544,664.9 529.9,690.1 513.1,707.1 			"/>
			<polygon class="st211" points="492,750 515.8,743.3 518,723.6 			"/>
			<polygon class="st212" points="499.6,487.4 492.8,499 526.2,495.4 			"/>
			<polygon class="st213" points="492.8,499 501.4,532.8 514.6,522.4 			"/>
			<polygon class="st214" points="492.8,499 514.6,522.4 542.7,520 526.2,495.4 			"/>
			<polygon class="st161" points="493.1,638.5 514.6,659.9 515.6,638.5 			"/>
			<polygon class="st215" points="506.6,974.1 495,1002.9 517.5,980.8 			"/>
			<polygon class="st216" points="495,1002.9 584.5,1028.1 572.2,991.2 557.6,986.2 			"/>
			<polygon class="st217" points="495,1002.9 557.6,986.2 517.5,980.8 			"/>
			<polygon class="st218" points="514.6,659.9 496.1,683.9 529.9,690.1 			"/>
			<polygon class="st219" points="496.1,683.9 513.1,707.1 529.9,690.1 			"/>
			<polygon class="st220" points="501.4,532.8 499.2,540.7 513.5,551.1 			"/>
			<polygon class="st221" points="504.2,779 499.4,821.2 534.2,815.7 			"/>
			<polygon class="st222" points="506.6,928.1 499.4,949.3 517.5,942.6 			"/>
			<polygon class="st223" points="499.4,949.3 531,961.9 517.5,942.6 			"/>
			<polygon class="st224" points="500.5,613.8 515.6,638.5 520.8,606.7 			"/>
			<polygon class="st225" points="501.4,532.8 513.5,551.1 514.6,522.4 			"/>
			<polygon class="st226" points="504.2,779 534.2,815.7 526.1,773.8 			"/>
			<polygon class="st227" points="504.2,898.1 517.5,901.6 522.6,884.4 			"/>
			<polygon class="st228" points="506.4,417 526.2,495.4 574.6,405.7 			"/>
			<polygon class="st229" points="506.6,908.3 506.6,928.1 525.4,922.3 			"/>
			<polygon class="st230" points="506.6,928.1 517.5,942.6 552.2,961.9 568.4,976.5 557.6,986.2 572.2,991.2 575.2,961.9 549.6,943
				540,945.3 527.2,935.4 525.4,922.3 			"/>
			<polygon class="st231" points="506.6,908.3 525.4,922.3 549.6,943 581.8,939 517.5,901.6 			"/>
			<polygon class="st232" points="506.6,974.1 517.5,980.8 531,961.9 			"/>
			<polygon class="st233" points="514.6,522.4 513.5,551.1 542.7,520 			"/>
			<polygon class="st234" points="513.5,551.1 535.3,576.2 542.7,520 			"/>
			<polygon class="st235" points="515.6,638.5 514.6,659.9 544,664.9 520.8,606.7 			"/>
			<polygon class="st236" points="514.6,659.9 529.9,690.1 544,664.9 			"/>
			<polygon class="st237" points="518,723.6 515.8,743.3 534.2,721.1 			"/>
			<polygon class="st238" points="515.8,743.3 526.1,773.8 546.9,721.5 			"/>
			<polygon class="st239" points="515.8,743.3 546.9,721.5 534.2,721.1 			"/>
			<polygon class="st240" points="516.4,585.8 520.8,606.7 546.9,641.7 			"/>
			<polygon class="st241" points="522.6,884.4 517.5,901.6 581.8,939 			"/>
			<polygon class="st242" points="517.5,942.6 531,961.9 552.2,961.9 			"/>
			<polygon class="st243" points="531,961.9 517.5,980.8 557.6,986.2 552.2,961.9 			"/>
			<polygon class="st244" points="518,723.6 534.2,721.1 534.2,711.1 			"/>
			<polygon class="st245" points="520.8,606.7 544,664.9 546.9,641.7 			"/>
			<polygon class="st246" points="534.2,815.7 522.6,884.4 564.9,864.3 			"/>
			<polygon class="st247" points="522.6,884.4 581.8,939 564.9,864.3 			"/>
			<polygon class="st248" points="525.4,922.3 527.2,935.4 540,945.3 549.6,943 			"/>
			<polygon class="st249" points="546.9,721.5 526.1,773.8 560.1,750 			"/>
			<polygon class="st250" points="526.1,773.8 534.2,815.7 560.1,750 			"/>
			<polygon class="st251" points="574.6,405.7 526.2,495.4 544.2,490.4 583.9,464.6 			"/>
			<polygon class="st252" points="526.2,495.4 542.7,520 544.2,490.4 			"/>
			<polygon class="st253" points="534.2,711.1 534.2,721.1 557.1,677.7 			"/>
			<polygon class="st254" points="544,664.9 534.2,711.1 557.1,677.7 			"/>
			<polygon class="st255" points="557.1,677.7 534.2,721.1 552.6,696 			"/>
			<polygon class="st256" points="552.6,696 534.2,721.1 546.9,721.5 			"/>
			<polygon class="st257" points="560.1,750 534.2,815.7 557.6,778 			"/>
			<polygon class="st258" points="557.6,778 534.2,815.7 572.5,833.7 			"/>
			<polygon class="st259" points="534.2,815.7 564.9,864.3 572.5,833.7 			"/>
			<polygon class="st260" points="542.7,520 535.3,576.2 557.4,589.7 			"/>
			<polygon class="st261" points="535.3,576.2 553.6,601.4 557.4,589.7 			"/>
			<polygon class="st262" points="544.2,490.4 542.7,520 566.8,527.6 			"/>
			<polygon class="st263" points="542.7,520 557.4,589.7 564.6,569.6 			"/>
			<polygon class="st264" points="542.7,520 564.6,569.6 557.4,589.7 586.9,560.2 575.1,539.6 566.8,527.6 			"/>
			<polygon class="st265" points="546.9,641.7 544,664.9 557.1,677.7 			"/>
			<polygon class="st266" points="544.2,490.4 566.8,527.6 571.7,508.6 			"/>
			<polygon class="st267" points="544.2,490.4 571.7,508.6 585,493.3 			"/>
			<polygon class="st268" points="544.2,490.4 585,493.3 583.9,464.6 			"/>
			<polygon class="st269" points="546.9,641.7 557.1,677.7 552.6,696 573.3,670.1 			"/>
			<polygon class="st270" points="552.6,696 546.9,721.5 573.3,670.1 			"/>
			<polygon class="st271" points="573.3,670.1 546.9,721.5 586.7,721.3 			"/>
			<polygon class="st272" points="546.9,721.5 560.1,750 573.3,747.4 			"/>
			<polygon class="st273" points="546.9,641.7 573.3,670.1 609.5,675.5 			"/>
			<polygon class="st274" points="546.9,721.5 573.3,747.4 586.7,721.3 			"/>
			<polygon class="st275" points="549.6,943 575.2,961.9 589.4,975.9 603,983.5 618.5,970.5 581.8,939 			"/>
			<polygon class="st276" points="552.2,961.9 557.6,986.2 568.4,976.5 			"/>
			<polygon class="st277" points="557.4,589.7 553.6,601.4 586.9,652.4 			"/>
			<polygon class="st278" points="557.4,589.7 586.9,652.4 596.6,626.2 			"/>
			<polygon class="st279" points="557.4,589.7 596.6,626.2 604.7,595.1 			"/>
			<polygon class="st280" points="557.4,589.7 604.7,595.1 586.9,560.2 			"/>
			<polygon class="st281" points="560.1,750 557.6,778 573.3,747.4 			"/>
			<polygon class="st282" points="573.3,747.4 557.6,778 572.5,833.7 			"/>
			<polygon class="st283" points="572.5,833.7 564.9,864.3 581.8,939 650,953.8 638.9,931.8 591.1,864.3 			"/>
			<polygon class="st284" points="571.7,508.6 566.8,527.6 575.1,539.6 			"/>
			<polygon class="st285" points="571.7,508.6 575.1,539.6 585,493.3 			"/>
			<polygon class="st286" points="575.2,961.9 572.2,991.2 589.4,975.9 			"/>
			<polygon class="st206" points="572.2,991.2 584.5,1028.1 599.9,1013.9 			"/>
			<polygon class="st287" points="572.2,991.2 599.9,1013.9 610.4,1002.9 603,983.5 589.4,975.9 			"/>
			<polygon class="st288" points="573.3,799.5 572.5,833.7 588.4,835.3 			"/>
			<polygon class="st289" points="572.5,833.7 591.1,864.3 588.4,835.3 			"/>
			<polygon class="st290" points="573.3,747.4 573.3,799.5 606.6,821.2 			"/>
			<polygon class="st291" points="573.3,670.1 586.7,721.3 589.6,682.5 			"/>
			<polygon class="st292" points="586.7,721.3 573.3,747.4 606.6,821.2 			"/>
			<polygon class="st293" points="573.3,799.5 588.4,835.3 591.1,864.3 606.6,821.2 			"/>
			<polygon class="st294" points="573.3,670.1 589.6,682.5 586.7,721.3 609.5,675.5 			"/>
			<polygon class="st295" points="574.6,405.7 583.9,464.6 619.4,412.8 			"/>
			<polygon class="st296" points="585,493.3 575.1,539.6 606.6,534.7 			"/>
			<polygon class="st297" points="575.1,539.6 586.9,560.2 602.1,543.5 			"/>
			<polygon class="st298" points="575.1,539.6 602.1,543.5 606.6,534.7 			"/>
			<polygon class="st299" points="581.8,939 618.5,970.5 650,997.6 650,953.8 			"/>
			<polygon class="st300" points="619.4,412.8 583.9,464.6 650.3,453.3 			"/>
			<polygon class="st301" points="583.9,464.6 585,493.3 606.6,534.7 649.7,509.4 			"/>
			<polygon class="st302" points="583.9,464.6 649.7,509.4 650.3,453.3 650.3,453.3 			"/>
			<polygon class="st303" points="584.5,1028.1 606.6,1042.5 599.9,1013.9 			"/>
			<polygon class="st304" points="609.5,675.5 586.7,721.3 630.1,737.8 			"/>
			<polygon class="st305" points="586.7,721.3 606.6,821.2 614.8,792.7 			"/>
			<polygon class="st306" points="586.7,721.3 614.8,792.7 628.1,806.2 630.1,737.8 			"/>
			<polygon class="st307" points="586.9,560.2 604.7,595.1 622.3,568.3 			"/>
			<polygon class="st308" points="596.6,626.2 586.9,652.4 643.1,656.9 			"/>
			<polygon class="st309" points="586.9,560.2 622.3,568.3 602.1,543.5 			"/>
			<polygon class="st310" points="586.9,652.4 609.5,675.5 643.1,656.9 			"/>
			<polygon class="st311" points="606.6,821.2 591.1,864.3 638.9,931.8 			"/>
			<polygon class="st312" points="604.7,595.1 596.6,626.2 638.5,631.4 			"/>
			<polygon class="st313" points="596.6,626.2 643.1,656.9 636.3,639.7 638.5,631.4 			"/>
			<polygon class="st314" points="599.9,1013.9 606.6,1042.5 615.9,1028.1 			"/>
			<polygon class="st315" points="599.9,1013.9 615.9,1028.1 633.6,1034.9 610.4,1002.9 			"/>
			<polygon class="st316" points="606.6,534.7 602.1,543.5 622.3,568.3 			"/>
			<polygon class="st317" points="603,983.5 610.4,1002.9 626.6,995.2 			"/>
			<polygon class="st318" points="603,983.5 626.6,995.2 642.2,1002.9 650.3,1006.9 650,997.6 618.5,970.5 			"/>
			<polygon class="st319" points="622.3,568.3 604.7,595.1 638.5,631.4 			"/>
			<polygon class="st320" points="606.6,534.7 622.3,568.3 649.7,509.4 			"/>
			<polygon class="st321" points="614.8,792.7 606.6,821.2 622.7,817.5 			"/>
			<polygon class="st322" points="606.6,821.2 638.9,931.8 637.7,884.4 			"/>
			<polygon class="st323" points="606.6,821.2 637.7,884.4 642.2,835.3 			"/>
			<polygon class="st324" points="615.9,1028.1 606.6,1042.5 633.6,1034.9 			"/>
			<polygon class="st325" points="606.6,821.2 642.2,835.3 622.7,817.5 			"/>
			<polygon class="st326" points="606.6,1042.5 650,1059.9 650.3,1025 633.6,1034.9 			"/>
			<polygon class="st327" points="609.5,675.5 630.1,737.8 637.1,724.5 			"/>
			<polygon class="st328" points="609.5,675.5 637.1,724.5 637.1,724.4 650,747.4 650.3,682.4 			"/>
			<polygon class="st329" points="609.5,675.5 650.3,682.4 643.1,656.9 			"/>
			<polygon class="st330" points="610.4,1002.9 633.6,1034.9 650.3,1025 642.2,1002.9 			"/>
			<polygon class="st331" points="610.4,1002.9 642.2,1002.9 626.6,995.2 			"/>
			<polygon class="st332" points="614.8,792.7 622.7,817.5 628.1,806.2 			"/>
			<polygon class="st333" points="619.4,412.8 650.3,453.3 650.3,453.3 650.3,453.3 650.3,453.4 650.3,410.6 			"/>
			<polygon class="st334" points="649.7,509.4 622.3,568.3 650.3,565.5 			"/>
			<polygon class="st335" points="622.3,568.3 638.5,631.4 650.2,578.6 			"/>
			<polygon class="st336" points="622.3,568.3 650.2,578.6 650.3,565.5 			"/>
			<polygon class="st337" points="628.1,806.2 622.7,817.5 642.2,835.3 			"/>
			<polygon class="st338" points="630.1,737.8 628.1,806.2 639.5,753.2 			"/>
			<polygon class="st339" points="639.5,753.2 628.1,806.2 642.2,835.3 			"/>
			<polygon class="st340" points="637.1,724.5 630.1,737.8 639.5,753.2 637.1,724.5 			"/>
			<polygon class="st341" points="638.5,631.4 636.3,639.7 650.2,622.7 			"/>
			<polygon class="st342" points="650.2,622.7 636.3,639.7 650.2,655.5 			"/>
			<polygon class="st342" points="636.3,639.7 643.1,656.9 650.2,655.5 			"/>
			<polygon class="st343" points="650,747.4 637.1,724.5 639.5,753.2 			"/>
			<polygon class="st344" points="642.2,835.3 637.7,884.4 650.3,847.9 			"/>
			<polygon class="st345" points="650.3,847.9 637.7,884.4 650,953.8 649.4,899.7 			"/>
			<polygon class="st346" points="637.7,884.4 638.9,931.8 650,953.8 			"/>
			<polygon class="st347" points="650.2,578.6 638.5,631.4 650.2,622.7 			"/>
			<polygon class="st348" points="639.5,753.2 642.2,835.3 650,747.4 			"/>
			<polygon class="st349" points="650,747.4 642.2,835.3 650.3,847.9 			"/>
			<polygon class="st350" points="642.2,1002.9 650.3,1025 650.3,1006.9 			"/>
			<polygon class="st351" points="643.1,656.9 650.3,682.4 650.2,655.5 			"/>
			<polygon class="st302" points="650.3,453.3 650.3,453.3 650.3,453.3 			"/>
		</g>
		<g>
		</g>
	</g>
	<polygon class="st352" points="494.1,721.5 520.5,710 539.1,688.1 544,664.9 529.9,690.1 513.1,707.1 485.7,717.8 	"/>
</g>
</svg>
