<?xml version="1.0" encoding="utf-8"?>
<!-- Generator: Adobe Illustrator 21.0.2, SVG Export Plug-In . SVG Version: 6.00 Build 0)  -->
<svg version="1.1" xmlns="http://www.w3.org/2000/svg" xmlns:xlink="http://www.w3.org/1999/xlink" x="0px" y="0px"
	 viewBox="0 0 2966.2 762.5" style="enable-background:new 0 0 2966.2 762.5;" xml:space="preserve">
<style type="text/css">
	.st0{fill:none;stroke:#515151;stroke-width:8;stroke-linecap:round;stroke-linejoin:round;stroke-miterlimit:10;}
</style>
<g id="end">
	<g>
		<path class="st0" d="M2744.8,360.5c-5.4-25.7,9-35.8,22.9-57.3c-35.7-3.3-72.9,28.6-86,59.9c-9,21.6-2.3,47.3,19.7,57.9
			c31.6,15.3,71.1-3.9,88.6-31.7c-25.8-7-51.4-16.1-74.1-30.3c-22.8-14.1-42.7-33.6-54.3-57.8c-18.2,54.5-17.7,114.4-2.1,169.5
			c0,0,37,145.5,34.5,235.7"/>
		<path class="st0" d="M2704,528.3c-21.7-7.1-45.4-5.7-65.8,4.7c-48.5,24.7-49.4,92.4-24.5,134.3c31.3,52.8,99.4,69.9,154.4,45.5
			c1,0.4,19.5-11.2,30.8-22c0,0,15.6-15.9,26.7-23c13.3-8.5,29.5-13.6,45.4-12.1c-10-5-15.5-15.5-24-22.3
			c-18.1-14.5-41.6-22.4-64.7-18.9c-16.1,2.4-30.9,9.8-46.1,15.8c-23.2,9.1-50,11.1-71.8-2.9c-13.5-8.6-25.4-18.9-31.8-33.9
			c-17-39.6,11.3-80.8,51.3-89"/>
		<path class="st0" d="M2757.9,558.1c0,0-27.6,57.6-31.3,149.8"/>
	</g>
</g>
<g id="end-1">
	<path class="st0" d="M2404.1,361.6c-6-25.9,9.3-36,23.8-57.5c-37.8-3.6-77.1,28.1-90.7,59.6c-9.4,21.7-2,47.6,21.3,58.5
		c33.7,15.7,75.4-3.3,93.8-31.2c-27.5-7.3-54.6-16.7-78.9-31.1c-24.3-14.4-45.6-34.2-58.1-58.6c-18.9,54.7-17.8,115.1-0.8,170.7
		c0,0,40.5,146.8,38.6,237.7"/>
	<path class="st0" d="M2421.1,552c0,0-29.3,61.2-33.3,159.1"/>
	<path class="st0" d="M2270.3,606.9c0,0-11.4,65.8-90.9,53.6s-77.1-94.2-77.1-94.2s-3.2-56.8,64.1-79.6s90.9,39.8,90.9,39.8
		s20.3,47.1-17.9,77.9c0,0,3.2-16.2-14.6-26.8"/>
	<path class="st0" d="M2278.1,702.3c0,0-3.4-39.7-15.2-60"/>
</g>
<g id="end-2">
	<path class="st0" d="M1983.3,415.5c2.8-24.8,19.6-29.9,39.4-45.6c-32.7-13-77.9,5.4-100,30.2c-15.2,17.1-16.8,42.3,0.7,58.1
		c25.2,22.8,68.5,16.4,93.7-3.9c-22.3-13.6-43.6-29.1-60.8-48.3s-30-42.5-33.5-67.7c-34.1,44.3-52.2,98.9-54.5,153.3
		c0,0-10,142.4-40.4,223.7"/>
	<path class="st0" d="M1747.1,671.7c0,0,2.7-55.8-41.5-97.5c0,0-29.2-19.4,13.5-60.5c42.7-41.1-79.3-102.3-79.3-102.3
		s-38.3-17.8-29.4-86.4c0,0-64.1,21-71.2,99.2s140.7,103.2,140.7,103.2s69.5,35.1,166.4-28"/>
</g>
<g id="end-3">
	<path class="st0" d="M1424.4,347.4c2.8-27.8,19.9-33.5,40-51c-33.2-14.5-79,6.1-101.3,33.8c-15.4,19.1-17.1,47.3,0.7,65
		c25.5,25.5,69.4,18.4,95-4.4c-22.6-15.3-44.2-32.5-61.6-54c-17.7-21.8-25.2-45.2-34.2-70.9c-37.8,34.4-56.2,98.3-73.3,145
		c-11,30-21.6,60.3-34.8,89.4c-13.7,30.1-31.6,56.7-42.2,88"/>
	<path class="st0" d="M1119.4,502.8c0,0,6.3-51.6-122.1-122.1c0,0,33.8-68.1,33.8-68.1c6.1-48.8,8.8-129.1-44.7-153.4
		c-16.8-7.6-35.6-9.3-54-9c-52.6,0.9-81.1,34.8-91.2,83.5c2.5-8.2,12.2-11.4,20.6-12.8c24.8-4.2,51.1-3.4,74,6.9
		c15.6,7,29.6,18.9,37.8,34c8,14.5,8.6,34,24.6,43.2c17.9,10.4,40.7-1.1,59-4.2c23.9-4.1,41.9,2.6,63.3,13.5
		c47,24,96.1,44,146.4,59.9"/>
</g>
<g id="end-4">
	<path class="st0" d="M722.1,178.9c-2.1-27.7,15.1-35,33.2-54.3c-38.1-10.9-83.2,14.1-102,43.6c-12.9,20.4-9.5,48.3,12.8,64
		c32,22.5,77.6,11,100.7-14c-27-12.7-53.3-27.5-75.9-46.9c-22.6-19.4-41.3-43.7-50.3-71.1c-28.2,53.3-49.2,108.9-50.7,169.7
		c-1.5,61.6,15.8,123.7,2,184.8"/>
	<path class="st0" d="M564.6,178.5c-57.4-44.4-131.8-63.7-203.6-61c-79.3,3-156.6,44.7-235.9,17.6c-31.3-10.7-59.3-32.7-92.4-35
		c32.5,2.3,52-13.2,77.2-27.7c21.3-12.3,47.4-16.8,71.6-12.5c38.2,6.8,73.9,19.1,97.6,49.9"/>
	<path class="st0" d="M408.2,155c0,0,11.7,58.7-97.8,50.8c0,0,3.9,26.1-20.9,63.9"/>
</g>
</svg>
