<?xml version="1.0" encoding="utf-8"?>
<!-- Generator: Adobe Illustrator 21.0.2, SVG Export Plug-In . SVG Version: 6.00 Build 0)  -->
<svg version="1.1" id="Layer_2" xmlns="http://www.w3.org/2000/svg" xmlns:xlink="http://www.w3.org/1999/xlink" x="0px" y="0px"
	 viewBox="0 0 1300 1300" style="enable-background:new 0 0 1300 1300;" xml:space="preserve">
<style type="text/css">
	.st0{fill:#EEF6F7;}
	.st1{fill:#AAADB0;}
	.st2{fill:#D9E0E4;}
	.st3{fill:#EAF2F6;}
	.st4{fill:#DCD5C8;}
	.st5{fill:#888B8A;}
	.st6{fill:#DFE6E5;}
	.st7{fill:#F3F7FB;}
	.st8{fill:#DFE7ED;}
	.st9{fill:#3F464B;}
	.st10{fill:#DEE4E7;}
	.st11{fill:#E2E8EE;}
	.st12{fill:#A1A5A5;}
	.st13{fill:#B0ADA2;}
	.st14{fill:#CAC0B6;}
	.st15{fill:#A7A499;}
	.st16{fill:#ACA498;}
	.st17{fill:#A6ADAF;}
	.st18{fill:#737472;}
	.st19{fill:#959B9E;}
	.st20{fill:#CFD2D5;}
	.st21{fill:#CBCFD2;}
	.st22{fill:#9D9282;}
	.st23{fill:#BEBDB9;}
	.st24{fill:#AAA699;}
	.st25{fill:#CFD8DB;}
	.st26{fill:#948A85;}
	.st27{fill:#71665D;}
	.st28{fill:#67686A;}
	.st29{fill:#B5B9BF;}
	.st30{fill:#8E8E84;}
	.st31{fill:#A6A6A4;}
	.st32{fill:#C1C5C6;}
	.st33{fill:#B0B3B2;}
	.st34{fill:#9C9A95;}
	.st35{fill:#898880;}
	.st36{fill:#736D60;}
	.st37{fill:#1B1A1B;}
	.st38{fill:#5A595A;}
	.st39{fill:#55514D;}
	.st40{fill:#6C6C6C;}
	.st41{fill:#4B4C4B;}
	.st42{fill:#7F7462;}
	.st43{fill:#7B7A76;}
	.st44{fill:#6C665F;}
	.st45{fill:#83878F;}
	.st46{fill:#C9D0D4;}
	.st47{fill:#979DA8;}
	.st48{fill:#B9C0CA;}
	.st49{fill:#464D56;}
	.st50{fill:#ADB2B8;}
	.st51{fill:#80868C;}
	.st52{fill:#B2B1A9;}
	.st53{fill:#959597;}
	.st54{fill:#6C6A66;}
	.st55{fill:#76736F;}
	.st56{fill:#9C9EA0;}
	.st57{fill:#8A9298;}
	.st58{fill:#A1A9B2;}
	.st59{fill:#D6E1E9;}
	.st60{fill:#30373E;}
	.st61{fill:#9DA6AE;}
	.st62{fill:#5C5F63;}
	.st63{fill:#3F4041;}
	.st64{fill:#848C91;}
	.st65{fill:#8E8782;}
	.st66{fill:#393A41;}
	.st67{fill:#4B4541;}
	.st68{fill:#7B786E;}
	.st69{fill:#81848B;}
	.st70{fill:#9A9A9A;}
	.st71{fill:#928E8A;}
	.st72{fill:#88837D;}
	.st73{fill:#52493E;}
	.st74{fill:#2F2923;}
	.st75{fill:#3C3530;}
	.st76{fill:#2B2E31;}
	.st77{fill:#5F5C5B;}
	.st78{fill:#4F4F51;}
	.st79{fill:#959694;}
	.st80{fill:#B1B9C0;}
	.st81{fill:#B9BEC3;}
	.st82{fill:#C2C5C8;}
	.st83{fill:#9FA6B0;}
	.st84{fill:#D3DCE6;}
	.st85{fill:#7C848B;}
	.st86{fill:#DCE7EF;}
	.st87{fill:#5D656C;}
	.st88{fill:#828A8F;}
	.st89{fill:#6B7179;}
	.st90{fill:#7D8387;}
	.st91{fill:#414346;}
	.st92{fill:#0B0B0E;}
	.st93{fill:#10131A;}
	.st94{fill:#706B67;}
	.st95{fill:#030406;}
	.st96{fill:#030305;}
	.st97{fill:#3F4040;}
	.st98{fill:#1D2227;}
	.st99{fill:#9F9E9A;}
	.st100{fill:#99A1A8;}
	.st101{fill:#5A5F64;}
	.st102{fill:#5F564E;}
	.st103{fill:#84817C;}
	.st104{fill:#96938C;}
	.st105{fill:#4C5455;}
	.st106{fill:#96979A;}
	.st107{fill:#36383C;}
	.st108{fill:#1D1E1F;}
	.st109{fill:#141416;}
	.st110{fill:#5F666F;}
	.st111{fill:#AEB7C1;}
	.st112{fill:#CBD4DC;}
	.st113{fill:#2D3137;}
	.st114{fill:#4B4E56;}
	.st115{fill:#21242B;}
	.st116{fill:#736F67;}
	.st117{fill:#5F636B;}
	.st118{fill:#474B53;}
	.st119{fill:#92989B;}
	.st120{fill:#F0F8FD;}
	.st121{fill:#343128;}
	.st122{fill:#918B85;}
	.st123{fill:#888E94;}
	.st124{fill:#3C454B;}
	.st125{fill:#837D78;}
	.st126{fill:#8B877C;}
	.st127{fill:#3E454E;}
	.st128{fill:#1F202A;}
	.st129{fill:#747880;}
	.st130{fill:#ACB4BB;}
	.st131{fill:#35363D;}
	.st132{fill:#868A92;}
	.st133{fill:#DDE6EE;}
	.st134{fill:#E3ECF2;}
	.st135{fill:#98A0A5;}
	.st136{fill:#C6CED6;}
	.st137{fill:#454446;}
	.st138{fill:#505359;}
	.st139{fill:#595C62;}
	.st140{fill:#191A1C;}
	.st141{fill:#6C7174;}
	.st142{fill:#686A6D;}
	.st143{fill:#7C7A75;}
	.st144{fill:#272520;}
	.st145{fill:#A1A5A7;}
	.st146{fill:#686763;}
	.st147{fill:#45484E;}
	.st148{fill:#2D2C28;}
	.st149{fill:#6E727A;}
	.st150{fill:#8E8D86;}
	.st151{fill:#303235;}
	.st152{fill:#5E5D5C;}
	.st153{fill:#434549;}
	.st154{fill:#4C4A47;}
	.st155{fill:#B8BCC5;}
	.st156{fill:#8A8788;}
	.st157{fill:#191819;}
	.st158{fill:#5F5F5D;}
	.st159{fill:#505358;}
	.st160{fill:#979B9E;}
	.st161{fill:#C5C6C5;}
	.st162{fill:#393937;}
	.st163{fill:#9B9FA5;}
	.st164{fill:#969C9F;}
	.st165{fill:#969C9E;}
	.st166{fill:#595859;}
	.st167{fill:#9C9B94;}
	.st168{fill:#574F43;}
	.st169{fill:#7F7B75;}
	.st170{fill:#75716F;}
	.st171{fill:#1D1C1A;}
	.st172{fill:#58585F;}
	.st173{fill:#C5CBCD;}
	.st174{fill:#99A0A9;}
	.st175{fill:#75797E;}
	.st176{fill:#585049;}
	.st177{fill:#A3A6A5;}
	.st178{fill:#8C887F;}
	.st179{fill:#58544F;}
	.st180{fill:#423E3B;}
	.st181{fill:#777B81;}
	.st182{fill:#737781;}
	.st183{fill:#686C76;}
	.st184{fill:#899099;}
	.st185{fill:#A2A9B0;}
	.st186{fill:#48484D;}
	.st187{fill:#414246;}
	.st188{fill:#878B8E;}
	.st189{fill:#787C7C;}
	.st190{fill:#B0B7BE;}
	.st191{fill:#93979C;}
	.st192{fill:#EEF6FC;}
	.st193{fill:#C5CED6;}
	.st194{fill:#ECF3FB;}
	.st195{fill:#757981;}
	.st196{fill:#606369;}
	.st197{fill:#605C59;}
	.st198{fill:#BEC2C6;}
	.st199{fill:#9EA3A7;}
	.st200{fill:#9DA4A6;}
	.st201{fill:#D7DFE8;}
	.st202{fill:#B3BAC4;}
	.st203{fill:#575247;}
	.st204{fill:#4F473B;}
	.st205{fill:#868E97;}
	.st206{fill:#D3DCE7;}
	.st207{fill:#919190;}
	.st208{fill:#9FA4AA;}
	.st209{fill:#979790;}
	.st210{fill:#909190;}
	.st211{fill:#484849;}
	.st212{fill:#7B7C7C;}
	.st213{fill:#606061;}
	.st214{fill:#868684;}
	.st215{fill:#5B5B59;}
	.st216{fill:#7D8087;}
	.st217{fill:#969DA2;}
	.st218{fill:#5F6060;}
	.st219{fill:#939391;}
	.st220{fill:#918F8E;}
	.st221{fill:#8E9398;}
	.st222{fill:#686059;}
	.st223{fill:#C0BFB8;}
	.st224{fill:#898987;}
	.st225{fill:#888581;}
	.st226{fill:#7C7F82;}
	.st227{fill:#737475;}
	.st228{fill:#585148;}
	.st229{fill:#292018;}
	.st230{fill:#93989C;}
	.st231{fill:#D2DBE7;}
	.st232{fill:#57585C;}
	.st233{fill:#B5BBC3;}
	.st234{fill:#5D6066;}
	.st235{fill:#8B8E91;}
	.st236{fill:#BBC2C4;}
	.st237{fill:#9DA2A8;}
	.st238{fill:#4D5053;}
	.st239{fill:#6C645A;}
	.st240{fill:#9C9C98;}
	.st241{fill:#999691;}
	.st242{fill:#7A746F;}
	.st243{fill:#BFC4CF;}
	.st244{fill:#84878C;}
	.st245{fill:#A3A7AB;}
	.st246{fill:#A8B0B7;}
	.st247{fill:#63686D;}
	.st248{fill:#8F949A;}
	.st249{fill:#62666C;}
	.st250{fill:#6C6E6F;}
	.st251{fill:#222123;}
	.st252{fill:#909393;}
	.st253{fill:#857F78;}
	.st254{fill:#C0C8D4;}
	.st255{fill:#9AA2AD;}
	.st256{fill:#C8CFD9;}
	.st257{fill:#C5C4BF;}
	.st258{fill:#AFB7BF;}
	.st259{fill:#70777E;}
	.st260{fill:#DAE3EB;}
	.st261{fill:#898D93;}
	.st262{fill:#9FA2A8;}
	.st263{fill:#676461;}
	.st264{fill:#949A9D;}
	.st265{fill:#898075;}
	.st266{fill:#525357;}
	.st267{fill:#818289;}
	.st268{fill:#5D5F62;}
	.st269{fill:#ADB0B6;}
	.st270{fill:#635D55;}
	.st271{fill:#BEC0C0;}
	.st272{fill:#86807B;}
	.st273{fill:#8C8C8E;}
	.st274{fill:#AFB8C1;}
	.st275{fill:#B3ABA1;}
	.st276{fill:#969491;}
	.st277{fill:#D9D5CA;}
	.st278{fill:#908D8A;}
	.st279{fill:#414242;}
	.st280{fill:#BFB7AC;}
	.st281{fill:#8A8582;}
	.st282{fill:#C3BFB9;}
	.st283{fill:#E2E6EA;}
	.st284{fill:#E3ECF4;}
	.st285{fill:#F6FAFD;}
	.st286{fill:#13141E;}
	.st287{fill:#0F1018;}
	.st288{fill:#B3ADA1;}
	.st289{fill:#19181E;}
	.st290{fill:#5F6067;}
	.st291{fill:#B2AFAC;}
	.st292{fill:#96958C;}
	.st293{fill:#0B0B0F;}
	.st294{fill:#1D1C20;}
	.st295{fill:#38322F;}
	.st296{fill:#19191E;}
	.st297{fill:#6C6B69;}
	.st298{fill:#ADADAD;}
	.st299{fill:#DFE2E4;}
	.st300{fill:#E4ECF5;}
	.st301{fill:#BAC2CD;}
	.st302{fill:#A4ABB0;}
	.st303{fill:#50473F;}
	.st304{fill:#33332E;}
	.st305{fill:#5C5544;}
	.st306{fill:#88847B;}
	.st307{fill:#636565;}
	.st308{fill:#322F34;}
	.st309{fill:#171715;}
	.st310{fill:#5E5B5A;}
	.st311{fill:#999692;}
	.st312{fill:#B9B5AF;}
	.st313{fill:#CBC7BC;}
	.st314{fill:#9B978C;}
	.st315{fill:#242426;}
	.st316{fill:#BBBAB8;}
	.st317{fill:#CEC5B5;}
	.st318{fill:#695E50;}
	.st319{fill:#17171B;}
	.st320{fill:#694F29;}
	.st321{fill:#77694E;}
	.st322{fill:#1A1B2A;}
	.st323{fill:#8E8B88;}
	.st324{fill:#928E86;}
	.st325{fill:#818280;}
	.st326{fill:#7B8193;}
	.st327{fill:#5A5753;}
	.st328{fill:#07080A;}
	.st329{fill:#989A9B;}
	.st330{fill:#36311A;}
	.st331{fill:#0E0D0E;}
	.st332{fill:#B4B5B7;}
	.st333{fill:#646565;}
	.st334{fill:#8F8B8A;}
	.st335{fill:#A2A09C;}
	.st336{fill:#C9CFD4;}
	.st337{fill:#1A2230;}
	.st338{fill:#222330;}
	.st339{fill:#2E2B28;}
	.st340{fill:#706F6E;}
	.st341{fill:#555149;}
	.st342{fill:#9FA0A0;}
	.st343{fill:#3E3C3D;}
	.st344{fill:#A2A1A1;}
	.st345{fill:#A4A8A9;}
	.st346{fill:#E0E8F1;}
	.st347{fill:#8E959F;}
	.st348{fill:#232329;}
	.st349{fill:#8B898A;}
	.st350{fill:#0D0C10;}
	.st351{fill:#010101;}
	.st352{fill:#463E2E;}
	.st353{fill:#080B0D;}
	.st354{fill:#C3CBD3;}
	.st355{fill:#878B96;}
	.st356{fill:#252332;}
	.st357{fill:#AAA9A2;}
	.st358{fill:#08070C;}
	.st359{fill:#040407;}
	.st360{fill:#BEBEC0;}
	.st361{fill:#AC9E8C;}
	.st362{fill:#64523E;}
	.st363{fill:#AD987C;}
	.st364{fill:#3C4157;}
	.st365{fill:#515970;}
	.st366{fill:#D6E0EB;}
	.st367{fill:#63605F;}
	.st368{fill:#969DA9;}
	.st369{fill:#2E2521;}
	.st370{fill:#131317;}
	.st371{fill:#161827;}
	.st372{fill:#1F222C;}
	.st373{fill:#B3AFA5;}
	.st374{fill:#DEDDDB;}
	.st375{fill:#B3B4B1;}
	.st376{fill:#999CA1;}
	.st377{fill:#585A5C;}
	.st378{fill:#D3D7DD;}
	.st379{fill:#E2EAF2;}
	.st380{fill:#DCE4ED;}
	.st381{fill:#999186;}
	.st382{fill:#73726E;}
	.st383{fill:#605B58;}
	.st384{fill:#AFABA4;}
	.st385{fill:#B0AFAD;}
	.st386{fill:#878684;}
	.st387{fill:#B2AEA6;}
	.st388{fill:#8C9398;}
	.st389{fill:#908C88;}
	.st390{fill:#A19D9B;}
	.st391{fill:#91949B;}
	.st392{fill:#2D2221;}
	.st393{fill:#D9E2EB;}
	.st394{fill:#85827D;}
	.st395{fill:#372C28;}
	.st396{fill:#96928A;}
	.st397{fill:#83837F;}
	.st398{fill:#85817C;}
	.st399{fill:#888888;}
	.st400{fill:#36332D;}
	.st401{fill:#878C97;}
	.st402{fill:#BAC0C5;}
	.st403{fill:#898C94;}
	.st404{fill:#C4C4C4;}
	.st405{fill:#626467;}
	.st406{fill:#807364;}
	.st407{fill:#B8AD9E;}
	.st408{fill:#959595;}
	.st409{fill:#BCBCB6;}
	.st410{fill:#CED4D7;}
	.st411{fill:#C5C7C6;}
	.st412{fill:#5C5755;}
	.st413{fill:#949BA7;}
	.st414{fill:#6B717E;}
	.st415{fill:#464F5A;}
	.st416{fill:#6F7989;}
	.st417{fill:#C8CACF;}
	.st418{fill:#E1E6EC;}
	.st419{fill:#403C39;}
	.st420{fill:#252527;}
	.st421{fill:#AFB0B3;}
	.st422{fill:#B3B6B9;}
	.st423{fill:#AEA599;}
	.st424{fill:#B5B2AA;}
	.st425{fill:#67594A;}
	.st426{fill:#958D84;}
	.st427{fill:#7D7C7B;}
	.st428{fill:#9B9B95;}
	.st429{fill:#393532;}
	.st430{fill:#45423D;}
	.st431{fill:#A09D9A;}
	.st432{fill:#8A8B8D;}
	.st433{fill:#BCBCBC;}
	.st434{fill:#AFB8C4;}
	.st435{fill:#A2AAB5;}
	.st436{fill:#C1C8D1;}
	.st437{fill:#7B7879;}
	.st438{fill:#999794;}
	.st439{fill:#EDEDEE;}
	.st440{fill:#B5C1CF;}
	.st441{fill:#85909F;}
	.st442{fill:#B6C4D2;}
	.st443{fill:#545456;}
	.st444{fill:#D0D6DD;}
	.st445{fill:#BDBCBB;}
	.st446{fill:#8D8D8D;}
	.st447{fill:#9E9C98;}
	.st448{fill:#232323;}
	.st449{fill:#7A7C82;}
	.st450{fill:#ACABAD;}
	.st451{fill:#D3D6D8;}
	.st452{fill:#C3C3C3;}
	.st453{fill:#A3A7AA;}
	.st454{fill:#979CA2;}
	.st455{fill:#A0A5AB;}
	.st456{fill:#B2B4B5;}
	.st457{fill:#E7EAED;}
	.st458{fill:#C5CBD0;}
	.st459{fill:#8A8889;}
	.st460{fill:#9EA1A6;}
	.st461{fill:#D9DDD7;}
	.st462{fill:#E9EBEA;}
	.st463{fill:#B3B7BD;}
	.st464{fill:#CBD0D6;}
	.st465{fill:#BFC6CD;}
	.st466{fill:#B8C0C9;}
	.st467{fill:#8E97A3;}
	.st468{fill:#85888C;}
	.st469{fill:#AFB2B6;}
	.st470{fill:#E8ECF0;}
	.st471{fill:#818C9C;}
	.st472{fill:#444B5C;}
	.st473{fill:#B1AAA1;}
	.st474{fill:#CBD1D3;}
	.st475{fill:#858E9F;}
	.st476{fill:#1A1B1E;}
	.st477{fill:#1A1C1F;}
	.st478{fill:#B1B5BE;}
	.st479{fill:#8F969F;}
	.st480{fill:#69707A;}
	.st481{fill:#A1A5AD;}
	.st482{fill:#767572;}
	.st483{fill:#D4DAE2;}
	.st484{fill:#C6CACD;}
	.st485{fill:#7E8899;}
	.st486{fill:#26303F;}
	.st487{fill:#687483;}
	.st488{fill:#2D3543;}
	.st489{fill:#7B8499;}
	.st490{fill:#666D7D;}
	.st491{fill:#D0D5D3;}
	.st492{fill:#CCC7C1;}
	.st493{fill:#C2C4C4;}
	.st494{fill:#BFBEBA;}
	.st495{fill:#DDDDDF;}
	.st496{fill:#677382;}
	.st497{fill:#2D3545;}
	.st498{fill:#767F8A;}
	.st499{fill:#7A8190;}
	.st500{fill:#8A909A;}
	.st501{fill:#8F979F;}
	.st502{fill:#263141;}
	.st503{fill:#898C8F;}
	.st504{fill:#A9AFB7;}
	.st505{fill:#7B8796;}
	.st506{fill:#535B6D;}
	.st507{fill:#CACDCF;}
	.st508{fill:#999EA4;}
	.st509{fill:#6F7A8A;}
	.st510{fill:#DADADC;}
	.st511{fill:#ADB0B1;}
	.st512{fill:#3C3F47;}
	.st513{fill:#6C6F7A;}
	.st514{fill:#9EA7AF;}
	.st515{fill:#7C8796;}
	.st516{fill:#5C6370;}
	.st517{fill:#737B89;}
	.st518{fill:#645E5C;}
	.st519{fill:#5F4935;}
	.st520{fill:#473F30;}
	.st521{fill:#2A1D1C;}
	.st522{fill:#787060;}
	.st523{fill:#56555F;}
	.st524{fill:#66667B;}
	.st525{fill:#AEAAA6;}
	.st526{fill:#3F3A3A;}
	.st527{fill:#626165;}
	.st528{fill:#9498A0;}
	.st529{fill:#79818B;}
	.st530{fill:#E1E2E6;}
	.st531{fill:#CCCFD0;}
	.st532{fill:#9B978E;}
	.st533{fill:#444752;}
	.st534{fill:#3E4148;}
	.st535{fill:#4A4649;}
	.st536{fill:#6D6E76;}
	.st537{fill:#B2B9C4;}
	.st538{fill:#959496;}
	.st539{fill:#CFD2D6;}
	.st540{fill:#D3D7D8;}
	.st541{fill:#EDF0F2;}
	.st542{fill:#657082;}
	.st543{fill:#151D2B;}
	.st544{fill:#C5C1BE;}
	.st545{fill:#7B7D7F;}
	.st546{fill:#DDE0EA;}
	.st547{fill:#222633;}
	.st548{fill:#474D5C;}
	.st549{fill:#909392;}
	.st550{fill:#292D35;}
	.st551{fill:#7C888B;}
	.st552{fill:#303643;}
	.st553{fill:#3C404B;}
	.st554{fill:#353A44;}
	.st555{fill:#818487;}
	.st556{fill:#6B7075;}
	.st557{fill:#747A87;}
	.st558{fill:#0E0E11;}
	.st559{fill:#F0F4F8;}
	.st560{fill:#1D212A;}
	.st561{fill:#343A4B;}
	.st562{fill:#C2C2C4;}
	.st563{fill:#090D16;}
	.st564{fill:#353D50;}
	.st565{fill:#191D29;}
	.st566{fill:#13141B;}
	.st567{fill:#4E566B;}
	.st568{fill:#D4D7DE;}
	.st569{fill:#717884;}
	.st570{fill:#161A24;}
	.st571{fill:#242739;}
	.st572{fill:#222535;}
	.st573{fill:#1E212D;}
	.st574{fill:#06070A;}
	.st575{fill:#707889;}
	.st576{fill:#131623;}
	.st577{fill:#181B2B;}
	.st578{fill:#38445D;}
	.st579{fill:#050303;}
	.st580{fill:#1E202A;}
	.st581{fill:#050709;}
	.st582{fill:#2A2B39;}
	.st583{fill:#3E4E6E;}
	.st584{fill:#425270;}
	.st585{fill:#1E1A1F;}
	.st586{fill:#040305;}
	.st587{fill:#3C3D48;}
	.st588{fill:#414B67;}
	.st589{fill:#A4A9B3;}
	.st590{fill:#7F7B7B;}
	.st591{fill:#505F7D;}
	.st592{fill:#030203;}
	.st593{fill:#1B181B;}
	.st594{fill:#030202;}
	.st595{fill:#332F38;}
	.st596{fill:#4F5C7B;}
	.st597{fill:#0E0D11;}
</style>
<g id="XMLID_2_">
	<g>
		<polygon class="st0" points="1069.3,911.9 1076.7,974.4 1017.6,850.6 		"/>
		<polygon class="st1" points="1017.6,850.6 1076.7,974.4 1013.2,927.5 1003.5,913.7 		"/>
		<polygon class="st2" points="1076.7,974.4 962.2,1009.5 957.3,956.7 		"/>
		<polygon class="st3" points="1076.7,974.4 957.3,956.7 948.7,934.2 984.4,907.1 1013.2,927.5 		"/>
		<polygon class="st4" points="971.3,643 1017.6,850.6 941.6,741.5 		"/>
		<polygon class="st5" points="941.6,741.5 1017.6,850.6 902.2,789.7 		"/>
		<polygon class="st6" points="1017.6,850.6 1003.5,913.7 998.8,892.7 959.9,859.4 		"/>
		<polygon class="st7" points="1017.6,850.6 959.9,859.4 913.6,837.2 		"/>
		<polygon class="st8" points="1017.6,850.6 913.6,837.2 902.2,789.7 		"/>
		<polygon class="st9" points="1003.5,913.7 1013.2,927.5 984.4,907.1 		"/>
		<polygon class="st10" points="998.8,892.7 1003.5,913.7 984.4,907.1 959.9,859.4 		"/>
		<polygon class="st11" points="959.9,859.4 984.4,907.1 913.6,837.2 		"/>
		<polygon class="st12" points="984.4,907.1 948.7,934.2 913.6,837.2 		"/>
		<polygon class="st13" points="950.5,542.5 979.6,581.7 971.3,643 		"/>
		<polygon class="st14" points="950.5,542.5 971.3,643 916.2,578.1 		"/>
		<polygon class="st15" points="916.2,578.1 971.3,643 890.9,672.3 905.1,619.3 906.7,618.2 905.4,618.1 		"/>
		<polygon class="st16" points="971.3,643 941.6,741.5 890.9,672.3 		"/>
		<polygon class="st17" points="957.3,956.7 962.2,1009.5 926.9,985.6 		"/>
		<polygon class="st18" points="962.2,1009.5 952.7,1012.1 926.9,985.6 		"/>
		<polygon class="st19" points="948.7,934.2 957.3,956.7 900.3,899 		"/>
		<polygon class="st20" points="900.3,899 957.3,956.7 909.3,965.6 869.4,893.6 		"/>
		<polygon class="st21" points="957.3,956.7 926.9,985.6 909.3,965.6 		"/>
		<polygon class="st22" points="942.5,467.4 950.5,542.5 909.3,482.2 		"/>
		<polygon class="st23" points="909.3,482.2 950.5,542.5 888.7,531.9 		"/>
		<polygon class="st24" points="950.5,542.5 916.2,578.1 888.7,531.9 		"/>
		<polygon class="st25" points="913.6,837.2 948.7,934.2 900.3,899 		"/>
		<polygon class="st26" points="934.3,387.3 942.5,467.4 920.4,446.5 		"/>
		<polygon class="st27" points="942.5,467.4 909.3,482.2 920.4,446.5 		"/>
		<polygon class="st28" points="890.9,672.3 941.6,741.5 847.9,727.3 		"/>
		<polygon class="st29" points="941.6,741.5 902.2,789.7 876,764.1 847.9,727.3 		"/>
		<polygon class="st30" points="922.5,353.6 934.3,387.3 918.6,384.3 		"/>
		<polygon class="st31" points="934.3,387.3 920.4,446.5 918.6,384.3 		"/>
		<polygon class="st32" points="909.3,965.6 926.9,985.6 903.8,985.6 		"/>
		<polygon class="st33" points="926.9,985.6 895.6,998.9 903.8,985.6 		"/>
		<polygon class="st34" points="889.3,292.8 922.5,353.6 892.6,314.8 		"/>
		<polygon class="st35" points="892.6,314.8 922.5,353.6 918.6,384.3 		"/>
		<polygon class="st36" points="918.6,384.3 920.4,446.5 886.8,459.6 		"/>
		<polygon class="st37" points="920.4,446.5 909.3,482.2 898.2,477.8 		"/>
		<polygon class="st38" points="920.4,446.5 898.2,477.8 886.8,459.6 		"/>
		<polygon class="st39" points="892.6,314.8 918.6,384.3 878.8,360.8 		"/>
		<polygon class="st40" points="918.6,384.3 886.8,459.6 864.6,431.6 		"/>
		<polygon class="st41" points="918.6,384.3 864.6,431.6 878.8,360.8 		"/>
		<polygon class="st42" points="888.7,531.9 916.2,578.1 842.5,545.2 841,531.9 		"/>
		<polygon class="st43" points="916.2,578.1 905.4,618.1 862.9,615.2 837.2,591.1 		"/>
		<polygon class="st44" points="916.2,578.1 837.2,591.1 842.5,545.2 		"/>
		<polygon class="st45" points="902.2,789.7 913.6,837.2 894.5,820.4 		"/>
		<polygon class="st46" points="913.6,837.2 900.3,899 862.5,861.2 		"/>
		<polygon class="st47" points="913.6,837.2 862.5,861.2 876,823.8 		"/>
		<polygon class="st48" points="913.6,837.2 876,823.8 876,814.7 		"/>
		<polygon class="st49" points="913.6,837.2 876,814.7 894.5,820.4 		"/>
		<polygon class="st50" points="869.4,893.6 909.3,965.6 841.3,934.2 		"/>
		<polygon class="st51" points="909.3,965.6 903.8,985.6 879.5,965.6 841.3,934.2 		"/>
		<polygon class="st52" points="909.3,482.2 888.7,531.9 875.5,507.4 		"/>
		<polygon class="st53" points="909.3,482.2 875.5,507.4 898.2,477.8 		"/>
		<polygon class="st54" points="905.4,618.1 905.1,619.3 884.8,632.6 862.9,615.2 		"/>
		<polygon class="st55" points="905.1,619.3 890.9,672.3 884.8,632.6 		"/>
		<polygon class="st56" points="903.8,985.6 895.6,998.9 879.5,965.6 		"/>
		<polygon class="st57" points="902.2,789.7 894.5,820.4 876,814.7 		"/>
		<polygon class="st58" points="902.2,789.7 876,814.7 856.3,808.5 		"/>
		<polygon class="st59" points="902.2,789.7 856.3,808.5 829.5,804.9 842.5,758.7 		"/>
		<polygon class="st60" points="902.2,789.7 842.5,758.7 876,764.1 		"/>
		<polygon class="st61" points="862.5,861.2 900.3,899 852.7,876.7 		"/>
		<polygon class="st62" points="900.3,899 869.4,893.6 852.7,876.7 		"/>
		<polygon class="st63" points="886.8,459.6 898.2,477.8 875.5,507.4 		"/>
		<polygon class="st64" points="879.5,965.6 895.6,998.9 877.1,985.6 841.3,934.2 		"/>
		<polygon class="st65" points="889.3,292.8 892.6,314.8 878.8,300.9 849.1,271.5 		"/>
		<polygon class="st66" points="892.6,314.8 878.8,360.8 864.6,431.6 864.6,363.9 887.6,328.5 		"/>
		<polygon class="st67" points="892.6,314.8 887.6,328.5 878.8,300.9 		"/>
		<polygon class="st68" points="884.8,632.6 890.9,672.3 845.3,646.2 		"/>
		<polygon class="st69" points="890.9,672.3 847.9,727.3 837.2,685.6 		"/>
		<polygon class="st70" points="890.9,672.3 837.2,685.6 845.3,646.2 		"/>
		<polygon class="st71" points="889.3,292.8 849.1,271.5 843.5,250.4 		"/>
		<polygon class="st72" points="875.5,507.4 888.7,531.9 856.1,513.1 854.1,486.8 		"/>
		<polygon class="st73" points="888.7,531.9 841,531.9 856.1,513.1 		"/>
		<polygon class="st74" points="878.8,300.9 887.6,328.5 849.1,271.5 		"/>
		<polygon class="st75" points="849.1,271.5 887.6,328.5 846.5,334 825.9,323.1 		"/>
		<polygon class="st76" points="887.6,328.5 864.6,363.9 846.5,334 		"/>
		<polygon class="st77" points="864.6,431.6 886.8,459.6 854.1,486.8 		"/>
		<polygon class="st78" points="886.8,459.6 875.5,507.4 854.1,486.8 		"/>
		<polygon class="st79" points="884.8,632.6 845.3,646.2 862.9,615.2 		"/>
		<polygon class="st80" points="841.3,934.2 877.1,985.6 835.9,943.2 		"/>
		<polygon class="st81" points="835.9,943.2 877.1,985.6 781.7,960.7 775.1,949.2 		"/>
		<polygon class="st82" points="877.1,985.6 777.2,973.9 781.7,960.7 		"/>
		<polygon class="st83" points="876,814.7 876,823.8 856.3,808.5 		"/>
		<polygon class="st84" points="847.9,727.3 876,764.1 842.5,758.7 		"/>
		<polygon class="st85" points="876,823.8 862.5,861.2 843.4,850.6 		"/>
		<polygon class="st86" points="876,823.8 843.4,850.6 829.5,850.6 829.5,804.9 		"/>
		<polygon class="st87" points="876,823.8 829.5,804.9 856.3,808.5 		"/>
		<polygon class="st88" points="852.7,876.7 869.4,893.6 819,883 829.5,892.7 794.9,879.7 773.2,887 766.3,874 788.6,870.1
			809.3,869.9 		"/>
		<polygon class="st89" points="869.4,893.6 841.3,934.2 824.2,909.6 		"/>
		<polygon class="st90" points="869.4,893.6 824.2,909.6 755.3,905.3 773.2,887 829.5,892.7 		"/>
		<polygon class="st91" points="869.4,893.6 829.5,892.7 819,883 		"/>
		<polygon class="st92" points="864.6,363.9 864.6,431.6 818.6,399 		"/>
		<polygon class="st93" points="846.5,334 864.6,363.9 834.6,369.6 		"/>
		<polygon class="st94" points="864.6,431.6 854.1,486.8 798,524 		"/>
		<polygon class="st95" points="864.6,431.6 798,524 781.8,504.9 		"/>
		<polygon class="st96" points="864.6,363.9 818.6,399 834.6,369.6 		"/>
		<polygon class="st97" points="864.6,431.6 781.8,504.9 841,423.7 		"/>
		<polygon class="st98" points="864.6,431.6 841,423.7 818.6,399 		"/>
		<polygon class="st99" points="862.9,615.2 845.3,646.2 837.2,591.1 		"/>
		<polygon class="st100" points="862.5,861.2 852.7,876.7 829.5,867.9 809.3,869.9 829.5,850.6 		"/>
		<polygon class="st101" points="862.5,861.2 829.5,850.6 843.4,850.6 		"/>
		<polygon class="st102" points="854.1,486.8 856.1,513.1 834.6,517.5 		"/>
		<polygon class="st103" points="856.1,513.1 841,531.9 823.2,553.1 798,524 834.6,517.5 		"/>
		<polygon class="st104" points="854.1,486.8 834.6,517.5 798,524 		"/>
		<polygon class="st105" points="852.7,876.7 809.3,869.9 829.5,867.9 		"/>
		<polygon class="st106" points="843.5,250.4 849.1,271.5 813.5,261.2 784.5,259.3 		"/>
		<polygon class="st107" points="849.1,271.5 825.9,323.1 791.3,303.6 		"/>
		<polygon class="st108" points="849.1,271.5 791.3,303.6 771.3,287.1 		"/>
		<polygon class="st109" points="849.1,271.5 771.3,287.1 813.5,261.2 		"/>
		<polygon class="st110" points="837.2,685.6 847.9,727.3 818.2,702.3 		"/>
		<polygon class="st111" points="847.9,727.3 842.5,758.7 761.3,746.5 757.3,717.4 		"/>
		<polygon class="st112" points="847.9,727.3 757.3,717.4 818.2,702.3 		"/>
		<polygon class="st113" points="846.5,334 834.6,369.6 825.9,353.6 		"/>
		<polygon class="st114" points="846.5,334 825.9,353.6 815,334 		"/>
		<polygon class="st115" points="846.5,334 815,334 825.9,323.1 		"/>
		<polygon class="st116" points="837.2,591.1 845.3,646.2 802.6,651 805.5,589.3 		"/>
		<polygon class="st117" points="845.3,646.2 837.2,685.6 809.9,665.5 		"/>
		<polygon class="st118" points="845.3,646.2 809.9,665.5 802.6,651 		"/>
		<polygon class="st119" points="843.5,250.4 784.5,259.3 801.5,241.5 		"/>
		<polygon class="st120" points="842.5,758.7 829.5,804.9 761.3,746.5 		"/>
		<polygon class="st121" points="841,531.9 842.5,545.2 823.2,553.1 		"/>
		<polygon class="st122" points="842.5,545.2 837.2,591.1 818.6,578.1 823.2,553.1 		"/>
		<polygon class="st123" points="824.2,909.6 841.3,934.2 835.9,943.2 		"/>
		<polygon class="st124" points="818.6,399 841,423.7 753.4,464.3 		"/>
		<polygon class="st125" points="841,423.7 781.8,504.9 753.4,464.3 		"/>
		<polygon class="st126" points="837.2,591.1 805.5,589.3 787,556 818.6,578.1 		"/>
		<polygon class="st127" points="837.2,685.6 818.2,702.3 757.3,717.4 767,705.2 		"/>
		<polygon class="st128" points="837.2,685.6 767,705.2 809.9,665.5 		"/>
		<polygon class="st129" points="824.2,909.6 835.9,943.2 755.3,905.3 		"/>
		<polygon class="st81" points="835.9,943.2 775.1,949.2 770,919.7 		"/>
		<polygon class="st130" points="835.9,943.2 770,919.7 755.3,905.3 		"/>
		<polygon class="st131" points="825.9,353.6 834.6,369.6 818.6,381.5 		"/>
		<polygon class="st132" points="834.6,369.6 818.6,399 791.3,394.9 818.6,381.5 		"/>
		<polygon class="st133" points="829.5,804.9 829.5,850.6 747.7,850.6 		"/>
		<polygon class="st134" points="829.5,804.9 747.7,850.6 761.3,746.5 		"/>
		<polygon class="st135" points="829.5,850.6 809.3,869.9 788.6,870.1 		"/>
		<polygon class="st136" points="829.5,850.6 788.6,870.1 747.7,850.6 		"/>
		<polygon class="st137" points="829.5,892.7 773.2,887 794.9,879.7 		"/>
		<polygon class="st138" points="825.9,323.1 815,334 815,346.6 791.3,303.6 		"/>
		<polygon class="st139" points="815,334 825.9,353.6 815,346.6 		"/>
		<polygon class="st140" points="825.9,353.6 818.6,381.5 791.3,394.9 		"/>
		<polygon class="st141" points="825.9,353.6 791.3,394.9 787.9,357.7 		"/>
		<polygon class="st142" points="825.9,353.6 787.9,357.7 815,346.6 		"/>
		<polygon class="st143" points="798,524 823.2,553.1 802.6,553.1 		"/>
		<polygon class="st144" points="823.2,553.1 818.6,578.1 802.6,553.1 		"/>
		<polygon class="st145" points="818.6,399 753.4,464.3 791.3,394.9 		"/>
		<polygon class="st146" points="802.6,553.1 818.6,578.1 787,556 		"/>
		<polygon class="st147" points="791.3,303.6 815,346.6 787.9,357.7 		"/>
		<polygon class="st148" points="813.5,261.2 771.3,287.1 784.5,259.3 		"/>
		<polygon class="st149" points="802.6,651 809.9,665.5 767,705.2 760.9,646.2 		"/>
		<polygon class="st150" points="787,556 805.5,589.3 769.4,579.7 		"/>
		<polygon class="st151" points="805.5,589.3 802.6,651 769.4,579.7 		"/>
		<polygon class="st152" points="798,524 802.6,553.1 781.8,533.2 		"/>
		<polygon class="st153" points="769.4,579.7 802.6,651 761.8,635 		"/>
		<polygon class="st154" points="802.6,553.1 787,556 781.8,533.2 		"/>
		<polygon class="st155" points="802.6,651 760.9,646.2 761.8,635 		"/>
		<polygon class="st156" points="801.5,241.5 784.5,259.3 777.4,255 		"/>
		<polygon class="st157" points="781.8,504.9 798,524 781.8,533.2 		"/>
		<polygon class="st158" points="795.7,991.3 747.7,972.5 777.2,973.9 		"/>
		<polygon class="st159" points="791.3,303.6 787.9,357.7 770.8,306 		"/>
		<polygon class="st160" points="787.9,357.7 791.3,394.9 744.2,403.7 		"/>
		<polygon class="st161" points="791.3,394.9 753.4,464.3 744.2,403.7 		"/>
		<polygon class="st162" points="791.3,303.6 770.8,306 771.3,287.1 		"/>
		<polygon class="st163" points="788.6,870.1 766.3,874 711.7,883.6 747.7,850.6 		"/>
		<polygon class="st164" points="770.8,306 787.9,357.7 730.1,387.3 		"/>
		<polygon class="st165" points="787.9,357.7 744.2,403.7 730.1,387.3 		"/>
		<polygon class="st166" points="781.8,533.2 787,556 770.9,539.1 781.8,504.9 		"/>
		<polygon class="st167" points="770.9,539.1 787,556 769.4,579.7 		"/>
		<polygon class="st168" points="784.5,259.3 771.3,287.1 759,290.6 		"/>
		<polygon class="st169" points="784.5,259.3 759,290.6 777.4,255 		"/>
		<polygon class="st170" points="753.4,464.3 781.8,504.9 759.1,517.5 737.3,513.1 753.4,494.3 731.4,456.8 725.8,422 744.2,403.7
					"/>
		<polygon class="st171" points="781.8,504.9 770.9,539.1 759.1,517.5 		"/>
		<polygon class="st172" points="775.1,949.2 781.7,960.7 758.2,949.2 		"/>
		<polygon class="st173" points="781.7,960.7 777.2,973.9 747.7,972.5 758.2,949.2 		"/>
		<polygon class="st174" points="770,919.7 775.1,949.2 758.2,949.2 740.5,902.1 		"/>
		<polygon class="st175" points="766.3,874 773.2,887 755.3,905.3 		"/>
		<polygon class="st176" points="771.3,287.1 770.8,306 759,290.6 		"/>
		<polygon class="st177" points="759.1,517.5 770.9,539.1 737.3,513.1 		"/>
		<polygon class="st178" points="770.9,539.1 769.4,579.7 703.5,524 737.3,513.1 		"/>
		<polygon class="st179" points="759,290.6 770.8,306 721.3,375.7 		"/>
		<polygon class="st180" points="770.8,306 730.1,387.3 721.3,375.7 		"/>
		<polygon class="st181" points="770,919.7 740.5,902.1 755.3,905.3 		"/>
		<polygon class="st182" points="769.4,579.7 761.8,635 724.7,608.6 		"/>
		<polygon class="st183" points="769.4,579.7 724.7,608.6 688,586.1 642.6,566.6 		"/>
		<polygon class="st184" points="769.4,579.7 642.6,566.6 655.6,542.5 		"/>
		<polygon class="st185" points="769.4,579.7 655.6,542.5 671.4,528.6 		"/>
		<polygon class="st186" points="769.4,579.7 671.4,528.6 703.5,524 		"/>
		<polygon class="st187" points="760.9,646.2 767,705.2 757.3,717.4 		"/>
		<polygon class="st188" points="766.3,874 755.3,905.3 740.5,902.1 		"/>
		<polygon class="st189" points="766.3,874 740.5,902.1 688,905.3 711.7,883.6 		"/>
		<polygon class="st190" points="761.8,635 760.9,646.2 683.2,653.4 		"/>
		<polygon class="st191" points="761.8,635 683.2,653.4 724.7,608.6 		"/>
		<polygon class="st192" points="757.3,717.4 761.3,746.5 674.5,732.1 		"/>
		<polygon class="st193" points="761.3,746.5 747.7,850.6 661.7,799.3 		"/>
		<polygon class="st194" points="761.3,746.5 661.7,799.3 674.5,732.1 		"/>
		<polygon class="st195" points="760.9,646.2 757.3,717.4 685,670.1 		"/>
		<polygon class="st196" points="760.9,646.2 685,670.1 683.2,653.4 		"/>
		<polygon class="st197" points="759,290.6 721.3,375.7 718.3,363.7 		"/>
		<polygon class="st198" points="740.5,902.1 758.2,949.2 672.8,919.7 		"/>
		<polygon class="st199" points="758.2,949.2 747.7,972.5 671.4,965.3 		"/>
		<polygon class="st200" points="758.2,949.2 671.4,965.3 606.5,965.3 672.8,919.7 		"/>
		<polygon class="st201" points="757.3,717.4 674.5,732.1 625.7,709.8 		"/>
		<polygon class="st202" points="757.3,717.4 625.7,709.8 685,670.1 		"/>
		<polygon class="st203" points="731.4,456.8 753.4,494.3 705,467.4 		"/>
		<polygon class="st204" points="753.4,494.3 737.3,513.1 705,467.4 		"/>
		<polygon class="st205" points="747.7,850.6 711.5,883.6 688,905.3 613.9,804.9 		"/>
		<polygon class="st206" points="747.7,850.6 613.9,804.9 661.7,799.3 		"/>
		<polygon class="st207" points="730.1,387.3 744.2,403.7 731.4,403.7 		"/>
		<polygon class="st99" points="744.2,403.7 725.8,422 731.4,403.7 		"/>
		<polygon class="st208" points="740.5,902.1 672.8,919.7 688,905.3 		"/>
		<polygon class="st209" points="705,467.4 737.3,513.1 706.9,493.4 679.6,460.6 		"/>
		<polygon class="st210" points="737.3,513.1 703.5,524 706.9,493.4 		"/>
		<polygon class="st211" points="730.1,387.3 731.4,403.7 711.4,408.6 		"/>
		<polygon class="st212" points="731.4,403.7 725.8,422 712.8,418.3 711.4,408.6 		"/>
		<polygon class="st213" points="725.8,422 731.4,456.8 712.8,418.3 		"/>
		<polygon class="st214" points="712.8,418.3 731.4,456.8 705,467.4 685.3,431.7 		"/>
		<polygon class="st215" points="721.3,375.7 730.1,387.3 711.4,408.6 		"/>
		<polygon class="st216" points="724.7,608.6 683.2,653.4 680.8,608.6 		"/>
		<polygon class="st217" points="724.7,608.6 680.8,608.6 688,586.1 		"/>
		<polygon class="st218" points="721.3,375.7 711.4,408.6 711.4,391.3 		"/>
		<polygon class="st219" points="721.3,375.7 711.4,391.3 711.4,408.6 685.3,431.7 665.5,432.9 711.4,384.3 		"/>
		<polygon class="st220" points="721.3,375.7 711.4,384.3 679.2,367.1 		"/>
		<polygon class="st221" points="711.4,408.6 712.8,418.3 685.3,431.7 		"/>
		<polygon class="st222" points="711.4,384.3 665.5,432.9 675.5,397.7 		"/>
		<polygon class="st223" points="711.4,384.3 675.5,397.7 614.2,419 657.3,380.7 		"/>
		<polygon class="st224" points="711.4,384.3 657.3,380.7 679.2,367.1 		"/>
		<polygon class="st225" points="679.6,460.6 706.9,493.4 614.7,489.5 		"/>
		<polygon class="st226" points="706.9,493.4 703.5,524 671.4,528.6 671.4,514.7 		"/>
		<polygon class="st227" points="706.9,493.4 671.4,514.7 614.7,489.5 		"/>
		<polygon class="st228" points="685.3,431.7 705,467.4 665.5,432.9 		"/>
		<polygon class="st229" points="705,467.4 679.6,460.6 665.5,432.9 		"/>
		<polygon class="st230" points="688,586.1 680.8,608.6 663.5,628.6 636.6,628.6 636.6,605.9 		"/>
		<polygon class="st231" points="613.9,804.9 688,905.3 662.7,892.7 		"/>
		<polygon class="st232" points="688,586.1 636.6,605.9 642.6,566.6 		"/>
		<polygon class="st233" points="688,905.3 672.8,919.7 652.4,902.6 		"/>
		<polygon class="st234" points="688,905.3 652.4,902.6 662.7,892.7 		"/>
		<polygon class="st235" points="683.2,653.4 685,670.1 611.4,659 		"/>
		<polygon class="st236" points="685,670.1 625.7,709.8 611.4,659 		"/>
		<polygon class="st237" points="680.8,608.6 683.2,653.4 663.5,628.6 		"/>
		<polygon class="st238" points="663.5,628.6 683.2,653.4 636.6,628.6 		"/>
		<polygon class="st239" points="683.2,653.4 611.4,659 636.6,628.6 		"/>
		<polygon class="st240" points="665.5,432.9 679.6,460.6 614.7,489.5 		"/>
		<polygon class="st241" points="675.5,397.7 665.5,432.9 608.9,440.2 		"/>
		<polygon class="st242" points="675.5,397.7 608.9,440.2 614.2,419 		"/>
		<polygon class="st243" points="674.5,732.1 661.7,799.3 622.4,774.5 		"/>
		<polygon class="st244" points="674.5,732.1 622.4,774.5 565.9,749.5 		"/>
		<polygon class="st245" points="674.5,732.1 565.9,749.5 625.7,709.8 		"/>
		<polygon class="st245" points="672.8,919.7 606.5,965.3 623.6,915.5 		"/>
		<polygon class="st246" points="672.8,919.7 623.6,915.5 652.4,902.6 		"/>
		<polygon class="st247" points="671.4,514.7 671.4,528.6 655.6,542.5 		"/>
		<polygon class="st248" points="671.4,514.7 655.6,542.5 634.4,542.5 		"/>
		<polygon class="st249" points="671.4,514.7 634.4,542.5 595,510.2 		"/>
		<polygon class="st250" points="671.4,514.7 595,510.2 576.9,488.5 		"/>
		<polygon class="st251" points="671.4,514.7 576.9,488.5 614.7,489.5 		"/>
		<polygon class="st252" points="671.4,965.3 641.8,985.6 606.5,965.3 		"/>
		<polygon class="st253" points="665.5,432.9 614.7,489.5 608.9,440.2 		"/>
		<polygon class="st254" points="613.9,804.9 662.7,892.7 581.8,823.8 		"/>
		<polygon class="st255" points="662.7,892.7 652.4,902.6 592.2,850.6 581.8,823.8 		"/>
		<polygon class="st256" points="661.7,799.3 613.9,804.9 622.4,774.5 		"/>
		<polygon class="st257" points="657.3,380.7 614.2,419 620.4,363.7 		"/>
		<polygon class="st258" points="655.6,542.5 642.6,566.6 634.4,551.2 		"/>
		<polygon class="st259" points="655.6,542.5 634.4,551.2 634.4,542.5 		"/>
		<polygon class="st260" points="652.4,902.6 623.6,915.5 558,945.1 592.2,850.6 		"/>
		<polygon class="st261" points="634.4,551.2 642.6,566.6 621.6,566.6 		"/>
		<polygon class="st262" points="642.6,566.6 636.6,605.9 621.6,603.9 623,572.4 		"/>
		<polygon class="st258" points="642.6,566.6 623,572.4 621.6,566.6 		"/>
		<polygon class="st263" points="641.8,985.6 620.3,985.6 606.5,965.3 		"/>
		<polygon class="st264" points="636.6,605.9 636.6,628.6 621.6,608.6 		"/>
		<polygon class="st265" points="621.6,608.6 636.6,628.6 611.4,659 602.1,653.4 584.6,650.1 564.1,650.1 621.6,603.9 		"/>
		<polygon class="st266" points="636.6,605.9 621.6,608.6 621.6,603.9 		"/>
		<polygon class="st267" points="634.4,542.5 634.4,551.2 621.6,566.6 571.7,548.7 		"/>
		<polygon class="st268" points="634.4,542.5 571.7,548.7 585.2,523 		"/>
		<polygon class="st269" points="634.4,542.5 585.2,523 595,510.2 		"/>
		<polygon class="st270" points="620.3,985.6 630.2,1000.3 571.4,991.3 606.5,965.3 		"/>
		<polygon class="st271" points="611.4,659 625.7,709.8 565.9,749.5 592.2,705.2 611.4,671.6 		"/>
		<polygon class="st272" points="623.6,915.5 606.5,965.3 559.4,960 558,945.1 		"/>
		<polygon class="st235" points="621.6,566.6 623,572.4 572,577.6 		"/>
		<polygon class="st273" points="623,572.4 621.6,603.9 558.4,584.9 572,577.6 		"/>
		<polygon class="st274" points="622.4,774.5 613.9,804.9 565.9,749.5 		"/>
		<polygon class="st210" points="621.6,566.6 572,577.6 571.7,548.7 		"/>
		<polygon class="st275" points="621.6,603.9 564.1,650.1 523,616.4 		"/>
		<polygon class="st276" points="621.6,603.9 523,616.4 518.6,612.8 558.4,584.9 		"/>
		<polygon class="st277" points="620.4,363.7 614.2,419 584.2,369.6 		"/>
		<polygon class="st278" points="608.9,440.2 614.7,489.5 590.1,466.3 		"/>
		<polygon class="st279" points="614.7,489.5 576.9,488.5 590.1,466.3 		"/>
		<polygon class="st280" points="584.2,369.6 614.2,419 511.4,403.7 539.4,370.9 		"/>
		<polygon class="st281" points="614.2,419 608.9,440.2 586.3,450.1 586.3,430 		"/>
		<polygon class="st282" points="614.2,419 586.3,430 511.4,403.7 		"/>
		<polygon class="st283" points="565.9,749.5 613.9,804.9 494.1,740.8 		"/>
		<polygon class="st284" points="613.9,804.9 581.8,823.8 558,832.4 522.3,811 		"/>
		<polygon class="st285" points="613.9,804.9 522.3,811 494.1,740.8 		"/>
		<polygon class="st286" points="611.4,659 611.4,671.6 598.5,672 		"/>
		<polygon class="st287" points="611.4,659 598.5,672 584.1,677.2 590.3,666.7 		"/>
		<polygon class="st288" points="611.4,671.6 592.2,705.2 578.5,688.5 		"/>
		<polygon class="st289" points="611.4,659 590.3,666.7 602.1,653.4 		"/>
		<polygon class="st290" points="611.4,671.6 578.5,688.5 598.5,672 		"/>
		<polygon class="st291" points="608.9,440.2 590.1,466.3 586.3,450.1 		"/>
		<polygon class="st292" points="606.5,965.3 571.4,991.3 559.4,960 		"/>
		<polygon class="st293" points="602.1,653.4 590.3,666.7 585.6,660.8 		"/>
		<polygon class="st294" points="602.1,653.4 585.6,660.8 586.3,656.6 587.1,652.1 		"/>
		<polygon class="st295" points="602.1,653.4 587.1,652.1 564.1,650.1 584.6,650.1 		"/>
		<polygon class="st296" points="598.5,672 578.5,688.5 584.1,677.2 		"/>
		<polygon class="st297" points="576.9,488.5 595,510.2 575.5,521.1 		"/>
		<polygon class="st248" points="595,510.2 585.2,523 575.5,521.1 		"/>
		<polygon class="st298" points="578.5,688.5 592.2,705.2 539.8,729.6 551.4,696.9 		"/>
		<polygon class="st299" points="592.2,705.2 565.9,749.5 554.3,729.6 		"/>
		<polygon class="st300" points="581.8,823.8 592.2,850.6 558,832.4 		"/>
		<polygon class="st301" points="592.2,850.6 558,945.1 533.8,888 558,832.4 		"/>
		<polygon class="st302" points="592.2,705.2 554.3,729.6 539.8,729.6 		"/>
		<polygon class="st303" points="590.7,1007.1 521.3,1000.3 571.4,991.3 		"/>
		<polygon class="st304" points="585.6,660.8 590.3,666.7 575.5,659 		"/>
		<polygon class="st305" points="590.3,666.7 584.1,677.2 575.5,659 		"/>
		<polygon class="st306" points="586.3,450.1 590.1,466.3 551,485.7 		"/>
		<polygon class="st307" points="590.1,466.3 576.9,488.5 551,485.7 		"/>
		<polygon class="st308" points="587.1,652.1 586.3,656.6 585.6,656.4 554.7,656.4 555.7,652.8 564.1,650.1 		"/>
		<polygon class="st309" points="586.3,656.6 585.6,660.8 575.5,659 585.6,656.4 		"/>
		<polygon class="st310" points="586.3,430 586.3,450.1 544.8,472.9 		"/>
		<polygon class="st311" points="586.3,430 544.8,472.9 511.4,510.2 516.6,479.1 526.9,450.1 		"/>
		<polygon class="st312" points="586.3,450.1 551,485.7 544.8,472.9 		"/>
		<polygon class="st313" points="586.3,430 526.9,450.1 520.1,432.9 		"/>
		<polygon class="st314" points="586.3,430 520.1,432.9 511.4,403.7 		"/>
		<polygon class="st315" points="585.6,656.4 575.5,659 554.7,656.4 		"/>
		<polygon class="st316" points="585.2,523 571.7,548.7 559.9,546 575.5,521.1 		"/>
		<polygon class="st317" points="584.2,369.6 539.4,370.9 522,336.5 		"/>
		<polygon class="st318" points="575.5,659 584.1,677.2 569.8,672 572,666 		"/>
		<polygon class="st319" points="584.1,677.2 578.5,688.5 555.1,686.7 571.4,686.7 		"/>
		<polygon class="st320" points="584.1,677.2 571.4,686.7 555.1,686.7 547.2,680.8 554,674.6 564.1,677.2 		"/>
		<polygon class="st321" points="584.1,677.2 564.1,677.2 569.8,672 		"/>
		<polygon class="st322" points="578.5,688.5 551.4,696.9 555.1,686.7 		"/>
		<polygon class="st323" points="576.9,488.5 575.5,521.1 521.4,514.7 		"/>
		<polygon class="st324" points="576.9,488.5 521.4,514.7 502.1,518.9 511.4,510.2 551,485.7 		"/>
		<polygon class="st325" points="575.5,521.1 559.9,546 521.4,533.6 		"/>
		<polygon class="st326" points="575.5,659 572,666 564.1,666.7 565.3,659 		"/>
		<polygon class="st327" points="575.5,521.1 521.4,533.6 521.4,514.7 		"/>
		<polygon class="st328" points="575.5,659 565.3,659 554,659 554.7,656.4 		"/>
		<polygon class="st329" points="571.7,548.7 572,577.6 558.3,573.6 544.8,564 		"/>
		<polygon class="st330" points="572,666 569.8,672 564.1,677.2 		"/>
		<polygon class="st331" points="572,666 564.1,677.2 551.4,666.7 564.1,666.7 		"/>
		<polygon class="st332" points="572,577.6 558.4,584.9 558.3,573.6 		"/>
		<polygon class="st333" points="571.7,548.7 544.8,564 559.9,546 		"/>
		<polygon class="st334" points="559.4,960 571.4,991.3 533.8,963.8 		"/>
		<polygon class="st335" points="571.4,991.3 521.3,1000.3 533.8,963.8 		"/>
		<polygon class="st336" points="554.3,729.6 565.9,749.5 494.1,740.8 539.8,729.6 		"/>
		<polygon class="st337" points="565.3,659 564.1,666.7 551.4,666.7 		"/>
		<polygon class="st338" points="565.3,659 551.4,666.7 554,659 		"/>
		<polygon class="st339" points="564.1,650.1 555.7,652.8 539,658.1 539,658.1 529.7,661.2 547.2,652.4 		"/>
		<polygon class="st340" points="564.1,650.1 547.2,652.4 529.7,661.2 511.5,672 499.5,669.8 515.5,624.3 523,616.4 		"/>
		<polygon class="st341" points="564.1,677.2 554,674.6 551.4,666.7 		"/>
		<polygon class="st342" points="559.9,546 544.8,564 526.9,572.4 521.4,533.6 		"/>
		<polygon class="st343" points="558,945.1 559.4,960 533.8,963.8 		"/>
		<polygon class="st332" points="558.3,573.6 558.4,584.9 506,604.1 499.5,597.4 526.9,572.4 		"/>
		<polygon class="st344" points="558.4,584.9 518.6,612.8 506,604.1 		"/>
		<polygon class="st345" points="558.3,573.6 526.9,572.4 544.8,564 		"/>
		<polygon class="st346" points="558,832.4 533.8,888 522.3,811 		"/>
		<polygon class="st347" points="533.8,888 558,945.1 466.2,930 		"/>
		<polygon class="st348" points="558,945.1 533.8,963.8 510.1,961.6 		"/>
		<polygon class="st61" points="558,945.1 510.1,961.6 491.6,960 466.2,930 		"/>
		<polygon class="st349" points="555.7,652.8 554.7,656.4 554,659 539,658.1 		"/>
		<polygon class="st350" points="555.1,686.7 551.4,696.9 547.2,680.8 		"/>
		<polygon class="st351" points="554,659 551.4,666.7 545.5,671.6 529.7,661.2 539,658.1 539,658.1 		"/>
		<polygon class="st352" points="551.4,666.7 554,674.6 547.2,680.8 545.5,671.6 		"/>
		<polygon class="st353" points="547.2,680.8 551.4,696.9 535.3,682.6 		"/>
		<polygon class="st354" points="551.4,696.9 539.8,729.6 512.6,710.9 		"/>
		<polygon class="st355" points="551.4,696.9 512.6,710.9 515.5,696.9 		"/>
		<polygon class="st356" points="551.4,696.9 515.5,696.9 535.3,682.6 		"/>
		<polygon class="st357" points="544.8,472.9 551,485.7 511.4,510.2 		"/>
		<polygon class="st358" points="545.5,671.6 547.2,680.8 535.3,682.6 529.7,679 		"/>
		<polygon class="st359" points="545.5,671.6 529.7,679 529.7,661.2 		"/>
		<polygon class="st360" points="539.8,729.6 494.1,740.8 512.6,710.9 		"/>
		<polygon class="st361" points="522,336.5 539.4,370.9 487.1,353.6 		"/>
		<polygon class="st362" points="539.4,370.9 511.4,403.7 483.9,388.2 		"/>
		<polygon class="st363" points="539.4,370.9 483.9,388.2 487.1,353.6 		"/>
		<polygon class="st364" points="535.3,682.6 515.5,696.9 507.5,687.1 		"/>
		<polygon class="st365" points="535.3,682.6 507.5,687.1 529.7,679 		"/>
		<polygon class="st346" points="522.3,811 533.8,888 512.9,845.8 		"/>
		<polygon class="st366" points="512.9,845.8 533.8,888 464.7,876.7 		"/>
		<polygon class="st367" points="533.8,963.8 521.3,1000.3 488.2,981.7 		"/>
		<polygon class="st368" points="533.8,888 466.2,930 464.7,876.7 		"/>
		<polygon class="st369" points="533.8,963.8 488.2,981.7 455.7,976.9 		"/>
		<polygon class="st370" points="533.8,963.8 455.7,976.9 491.6,960 510.1,961.6 		"/>
		<polygon class="st371" points="529.7,661.2 529.7,679 507.5,687.1 		"/>
		<polygon class="st372" points="529.7,661.2 507.5,687.1 511.5,672 		"/>
		<polygon class="st373" points="520.1,432.9 526.9,450.1 506.2,469.8 		"/>
		<polygon class="st374" points="526.9,450.1 516.6,479.1 506.2,469.8 		"/>
		<polygon class="st375" points="521.4,533.6 526.9,572.4 491,586.1 507.5,552.5 		"/>
		<polygon class="st376" points="526.9,572.4 499.5,597.4 491,586.1 		"/>
		<polygon class="st377" points="523,616.4 515.5,624.3 518.6,612.8 		"/>
		<polygon class="st378" points="494.1,740.8 522.3,811 464.7,789.8 		"/>
		<polygon class="st379" points="522.3,811 512.9,845.8 476.9,825.9 		"/>
		<polygon class="st380" points="522.3,811 476.9,825.9 464.7,789.8 		"/>
		<polygon class="st381" points="522,336.5 487.1,353.6 466.3,299.9 		"/>
		<polygon class="st382" points="521.4,514.7 521.4,533.6 507.5,552.5 		"/>
		<polygon class="st383" points="521.4,514.7 507.5,552.5 502.1,518.9 		"/>
		<polygon class="st384" points="511.4,403.7 520.1,432.9 486.2,421.6 494.4,414 		"/>
		<polygon class="st385" points="520.1,432.9 506.2,469.8 487.7,467.4 		"/>
		<polygon class="st386" points="520.1,432.9 487.7,467.4 476.9,457.9 		"/>
		<polygon class="st387" points="520.1,432.9 476.9,457.9 486.2,421.6 		"/>
		<polygon class="st388" points="518.6,612.8 515.5,624.3 501.6,628.3 497.2,610.8 506,604.1 		"/>
		<polygon class="st389" points="516.6,479.1 511.4,510.2 502.1,518.9 493.3,510.2 		"/>
		<polygon class="st390" points="516.6,479.1 493.3,510.2 506.2,469.8 		"/>
		<polygon class="st391" points="515.5,624.3 499.5,669.8 501.6,628.3 		"/>
		<polygon class="st392" points="507.5,687.1 515.5,696.9 512.6,710.9 		"/>
		<polygon class="st393" points="512.9,845.8 464.7,876.7 476.9,825.9 		"/>
		<polygon class="st394" points="507.5,687.1 512.6,710.9 494.1,740.8 494.1,714 499.5,669.8 511.5,672 		"/>
		<polygon class="st395" points="511.4,403.7 494.4,414 483.9,388.2 		"/>
		<polygon class="st396" points="502.1,518.9 507.5,552.5 479.4,535.9 		"/>
		<polygon class="st397" points="507.5,552.5 491,586.1 476.9,592.8 479.4,570.5 		"/>
		<polygon class="st394" points="507.5,552.5 479.4,570.5 479.4,535.9 		"/>
		<polygon class="st398" points="506.2,469.8 493.3,510.2 473.1,516 		"/>
		<polygon class="st399" points="506.2,469.8 473.1,516 487.7,467.4 		"/>
		<polygon class="st332" points="499.5,597.4 506,604.1 497.2,610.8 		"/>
		<polygon class="st400" points="502.1,518.9 479.4,535.9 493.3,510.2 		"/>
		<polygon class="st401" points="497.2,610.8 501.6,628.3 491,608.6 		"/>
		<polygon class="st402" points="491,608.6 501.6,628.3 499.5,669.8 		"/>
		<polygon class="st403" points="491,586.1 499.5,597.4 497.2,610.8 491,608.6 		"/>
		<polygon class="st404" points="491,608.6 499.5,669.8 470.5,712.3 444.8,677.2 		"/>
		<polygon class="st405" points="499.5,669.8 494.1,714 470.5,712.3 		"/>
		<polygon class="st406" points="483.9,388.2 494.4,414 474.1,397.7 		"/>
		<polygon class="st407" points="494.4,414 486.2,421.6 474.1,397.7 		"/>
		<polygon class="st408" points="494.1,714 494.1,740.8 470.5,712.3 		"/>
		<polygon class="st409" points="470.5,712.3 494.1,740.8 439.2,727.6 		"/>
		<polygon class="st410" points="494.1,740.8 464.7,789.8 391,774.5 		"/>
		<polygon class="st411" points="494.1,740.8 391,774.5 439.2,727.6 		"/>
		<polygon class="st412" points="493.3,510.2 479.4,535.9 473.1,516 		"/>
		<polygon class="st413" points="466.2,930 491.6,960 397.7,950.5 		"/>
		<polygon class="st414" points="491.6,960 455.7,976.9 401.1,976.9 		"/>
		<polygon class="st415" points="491.6,960 401.1,976.9 397.7,957.7 		"/>
		<polygon class="st416" points="491.6,960 397.7,957.7 397.7,950.5 		"/>
		<polygon class="st417" points="491,586.1 491,608.6 476.9,592.8 		"/>
		<polygon class="st418" points="476.9,592.8 491,608.6 444.8,677.2 		"/>
		<polygon class="st419" points="488.2,981.7 383.3,999.2 417.4,984.9 		"/>
		<polygon class="st420" points="488.2,981.7 417.4,984.9 455.7,976.9 		"/>
		<polygon class="st421" points="487.7,467.4 473.1,516 448,488.5 		"/>
		<polygon class="st422" points="487.7,467.4 448,488.5 476.9,457.9 		"/>
		<polygon class="st423" points="466.3,299.9 487.1,353.6 418.6,279.8 		"/>
		<polygon class="st424" points="418.6,279.8 487.1,353.6 413.1,325.7 		"/>
		<polygon class="st425" points="487.1,353.6 483.9,388.2 474.1,397.7 464.7,397.7 		"/>
		<polygon class="st426" points="487.1,353.6 464.7,397.7 409.2,338.1 409.1,337.9 413.1,325.7 		"/>
		<polygon class="st427" points="474.1,397.7 486.2,421.6 414.8,472.9 443.7,436.3 		"/>
		<polygon class="st428" points="486.2,421.6 476.9,457.9 414.8,472.9 		"/>
		<polygon class="st429" points="479.4,535.9 479.4,570.5 450,597.4 		"/>
		<polygon class="st430" points="473.1,516 479.4,535.9 462.3,528.1 		"/>
		<polygon class="st431" points="479.4,535.9 450,597.4 455.9,564.2 462.3,528.1 		"/>
		<polygon class="st334" points="479.4,570.5 476.9,592.8 450,597.4 		"/>
		<polygon class="st432" points="476.9,457.9 448,488.5 414.8,472.9 		"/>
		<polygon class="st433" points="476.9,592.8 444.8,677.2 450,597.4 		"/>
		<polygon class="st120" points="464.7,789.8 476.9,825.9 429.6,819.7 391.8,814.7 		"/>
		<polygon class="st434" points="476.9,825.9 464.7,876.7 423.1,899.4 		"/>
		<polygon class="st435" points="476.9,825.9 423.1,899.4 405.7,880.5 		"/>
		<polygon class="st436" points="476.9,825.9 405.7,880.5 429.6,819.7 		"/>
		<polygon class="st437" points="474.1,397.7 443.7,436.3 435.8,423.4 444.8,397.7 464.7,397.7 		"/>
		<polygon class="st438" points="448,488.5 473.1,516 462.3,528.1 		"/>
		<polygon class="st439" points="444.8,677.2 470.5,712.3 439.2,727.6 		"/>
		<polygon class="st440" points="464.7,876.7 466.2,930 423.1,899.4 		"/>
		<polygon class="st441" points="466.2,930 397.7,950.5 408.6,914.1 		"/>
		<polygon class="st442" points="466.2,930 408.6,914.1 417.4,906.8 423.1,899.4 		"/>
		<polygon class="st443" points="409.2,338.1 464.7,397.7 444.8,397.7 443.2,395.1 		"/>
		<polygon class="st444" points="464.7,789.8 391.8,814.7 358.1,811 391,774.5 		"/>
		<polygon class="st445" points="448,488.5 462.3,528.1 443.5,551.2 		"/>
		<polygon class="st446" points="462.3,528.1 455.9,564.2 454.8,564 443.5,551.2 		"/>
		<polygon class="st447" points="455.9,564.2 450,597.4 441.1,572.4 454.8,564 		"/>
		<polygon class="st448" points="455.7,976.9 417.4,984.9 401.1,976.9 		"/>
		<polygon class="st449" points="443.5,551.2 454.8,564 441.1,572.4 		"/>
		<polygon class="st450" points="441.1,572.4 450,597.4 425.7,597.4 		"/>
		<polygon class="st451" points="450,597.4 444.8,677.2 424.7,684.1 		"/>
		<polygon class="st452" points="450,597.4 424.7,684.1 403.8,663.5 425.7,597.4 		"/>
		<polygon class="st453" points="448,488.5 443.5,551.2 411.7,562.2 		"/>
		<polygon class="st454" points="448,488.5 411.7,562.2 398.8,556.6 414.7,502.1 414.8,472.9 		"/>
		<polygon class="st455" points="443.2,395.1 444.8,397.7 390.9,355.2 381.8,292.1 409.1,337.9 		"/>
		<polygon class="st456" points="444.8,397.7 435.8,423.4 397.5,392.1 		"/>
		<polygon class="st457" points="444.8,677.2 439.2,727.6 428.8,696.9 424.7,684.1 		"/>
		<polygon class="st458" points="444.8,397.7 397.5,392.1 390.9,355.2 		"/>
		<polygon class="st459" points="435.8,423.4 443.7,436.3 414.8,472.9 		"/>
		<polygon class="st460" points="443.5,551.2 441.1,572.4 425.7,597.4 411.7,562.2 		"/>
		<polygon class="st443" points="409.2,338.1 443.2,395.1 409.1,337.9 		"/>
		<polygon class="st461" points="428.8,696.9 439.2,727.6 403.8,709.8 		"/>
		<polygon class="st462" points="439.2,727.6 391,774.5 403.8,709.8 		"/>
		<polygon class="st463" points="435.8,423.4 414.8,472.9 376.2,471.1 		"/>
		<polygon class="st464" points="435.8,423.4 376.2,471.1 382.7,432.9 		"/>
		<polygon class="st465" points="435.8,423.4 382.7,432.9 397.5,392.1 		"/>
		<polygon class="st466" points="391.8,814.7 429.6,819.7 384.4,834.5 381,828.2 		"/>
		<polygon class="st467" points="429.6,819.7 405.7,880.5 399.4,870.1 384.4,834.5 		"/>
		<polygon class="st468" points="424.7,684.1 428.8,696.9 403.8,709.8 		"/>
		<polygon class="st469" points="411.7,562.2 425.7,597.4 403.8,663.5 		"/>
		<polygon class="st470" points="424.7,684.1 403.8,709.8 403.8,663.5 		"/>
		<polygon class="st471" points="405.7,880.5 423.1,899.4 411.6,899.4 401.8,905.3 		"/>
		<polygon class="st472" points="423.1,899.4 417.4,906.8 411.6,899.4 		"/>
		<polygon class="st473" points="418.6,279.8 413.1,325.7 381.8,292.1 371,268.9 		"/>
		<polygon class="st474" points="418.6,279.8 371,268.9 364.2,253.2 346.7,257.5 351.4,242.2 369.8,239.6 		"/>
		<polygon class="st475" points="411.6,899.4 417.4,906.8 408.6,914.1 		"/>
		<polygon class="st476" points="417.4,984.9 383.3,999.2 347.2,987.5 		"/>
		<polygon class="st477" points="417.4,984.9 347.2,987.5 401.1,976.9 		"/>
		<polygon class="st478" points="414.8,472.9 414.7,502.1 376.2,471.1 		"/>
		<polygon class="st479" points="414.7,502.1 398.8,556.6 398.8,533 		"/>
		<polygon class="st480" points="414.7,502.1 398.8,533 377.9,508.3 		"/>
		<polygon class="st481" points="414.7,502.1 377.9,508.3 376.2,471.1 		"/>
		<polygon class="st482" points="381.8,292.1 413.1,325.7 409.1,337.9 		"/>
		<polygon class="st483" points="411.7,562.2 403.8,663.5 379.7,645.8 		"/>
		<polygon class="st484" points="411.7,562.2 379.7,645.8 377.9,580.7 		"/>
		<polygon class="st379" points="411.7,562.2 377.9,580.7 398.8,556.6 		"/>
		<polygon class="st485" points="411.6,899.4 408.6,914.1 401.8,905.3 		"/>
		<polygon class="st455" points="409.2,338.1 409.1,337.9 409.1,337.9 		"/>
		<polygon class="st486" points="401.8,905.3 408.6,914.1 395.9,914.1 383.3,906.8 		"/>
		<polygon class="st487" points="408.6,914.1 397.7,950.5 391.1,954 369.1,938 395.9,914.1 		"/>
		<polygon class="st488" points="399.4,870.1 405.7,880.5 393.8,878.8 		"/>
		<polygon class="st489" points="405.7,880.5 401.8,905.3 384.4,880.5 		"/>
		<polygon class="st490" points="405.7,880.5 384.4,880.5 393.8,878.8 		"/>
		<polygon class="st491" points="403.8,663.5 403.8,709.8 382.1,690.9 		"/>
		<polygon class="st492" points="403.8,663.5 382.1,690.9 382.6,682.6 383.2,671.4 383.7,663.5 		"/>
		<polygon class="st493" points="403.8,709.8 391,774.5 369.1,737.1 		"/>
		<polygon class="st494" points="403.8,663.5 383.7,663.5 379.7,645.8 		"/>
		<polygon class="st495" points="403.8,709.8 369.1,737.1 382.1,690.9 		"/>
		<polygon class="st496" points="384.4,880.5 401.8,905.3 383.3,906.8 		"/>
		<polygon class="st497" points="397.7,957.7 401.1,976.9 335.5,965.3 357.5,957.7 391.1,954 		"/>
		<polygon class="st96" points="401.1,976.9 347.2,987.5 335.5,965.3 		"/>
		<polygon class="st498" points="384.4,834.5 399.4,870.1 384.4,880.5 380,839.5 		"/>
		<polygon class="st499" points="399.4,870.1 393.8,878.8 384.4,880.5 		"/>
		<polygon class="st261" points="398.8,533 398.8,556.6 364.4,562.7 		"/>
		<polygon class="st500" points="377.9,508.3 398.8,533 364.4,562.7 		"/>
		<polygon class="st501" points="398.8,556.6 377.9,580.7 371.9,590.6 364.4,562.7 		"/>
		<polygon class="st502" points="397.7,950.5 397.7,957.7 391.1,954 		"/>
		<polygon class="st503" points="390.9,355.2 397.5,392.1 377.7,363.7 		"/>
		<polygon class="st504" points="377.7,363.7 397.5,392.1 382.7,432.9 		"/>
		<polygon class="st505" points="395.9,914.1 369.1,938 365.1,926.9 		"/>
		<polygon class="st506" points="395.9,914.1 365.1,926.9 365.1,899.4 383.3,906.8 		"/>
		<polygon class="st507" points="391.8,814.7 381,828.2 362.7,824.9 		"/>
		<polygon class="st508" points="391.8,814.7 362.7,824.9 358.1,811 		"/>
		<polygon class="st509" points="391.1,954 357.5,957.7 369.1,938 		"/>
		<polygon class="st510" points="369.1,737.1 391,774.5 339.2,789.7 		"/>
		<polygon class="st511" points="391,774.5 358.1,811 339.2,789.7 		"/>
		<polygon class="st160" points="381.8,292.1 390.9,355.2 377.7,363.7 		"/>
		<polygon class="st512" points="381,828.2 384.4,834.5 372.9,832.6 		"/>
		<polygon class="st513" points="384.4,834.5 380,839.5 374.1,837.2 372.9,832.6 		"/>
		<polygon class="st514" points="380,839.5 384.4,880.5 339.2,867.8 		"/>
		<polygon class="st515" points="384.4,880.5 383.3,906.8 365.1,899.4 		"/>
		<polygon class="st516" points="384.4,880.5 365.1,899.4 335.5,909.7 321.3,903.1 339.2,888 		"/>
		<polygon class="st517" points="384.4,880.5 339.2,888 339.2,867.8 		"/>
		<polygon class="st518" points="379.7,645.8 383.7,663.5 373.9,657.2 368.3,653.6 		"/>
		<polygon class="st519" points="383.7,663.5 383.2,671.4 376.8,679.3 		"/>
		<polygon class="st520" points="383.7,663.5 376.8,679.3 374.5,671.4 		"/>
		<polygon class="st521" points="383.7,663.5 374.5,671.4 373.9,657.2 		"/>
		<polygon class="st522" points="383.2,671.4 382.6,682.6 376.8,679.3 		"/>
		<polygon class="st523" points="382.6,682.6 382.1,690.9 376.8,679.3 		"/>
		<polygon class="st524" points="376.8,679.3 382.1,690.9 371.4,686.7 		"/>
		<polygon class="st525" points="382.1,690.9 369.1,737.1 348.2,687 368.3,672 371.4,686.7 376.8,690.9 		"/>
		<polygon class="st526" points="371,268.9 381.8,292.1 346.7,257.5 		"/>
		<polygon class="st527" points="381.8,292.1 377.7,363.7 346.7,257.5 		"/>
		<polygon class="st528" points="381,828.2 372.9,832.6 374.1,837.2 359.7,836 362.7,824.9 		"/>
		<polygon class="st529" points="380,839.5 339.2,867.8 339.2,855 374.1,837.2 		"/>
		<polygon class="st530" points="377.9,580.7 379.7,645.8 359.7,610.8 371.9,590.6 		"/>
		<polygon class="st531" points="359.7,610.8 379.7,645.8 356.9,639 		"/>
		<polygon class="st532" points="379.7,645.8 368.3,653.6 356.9,639 		"/>
		<polygon class="st533" points="374.5,671.4 376.8,679.3 368.3,672 		"/>
		<polygon class="st534" points="376.8,679.3 371.4,686.7 368.3,672 		"/>
		<polygon class="st535" points="373.9,657.2 374.5,671.4 368.3,653.6 		"/>
		<polygon class="st536" points="368.3,653.6 374.5,671.4 368.3,672 		"/>
		<polygon class="st537" points="374.1,837.2 339.2,855 359.7,836 		"/>
		<polygon class="st538" points="364.2,253.2 371,268.9 346.7,257.5 		"/>
		<polygon class="st539" points="348.2,687 369.1,737.1 345.6,740.8 		"/>
		<polygon class="st540" points="369.1,737.1 339.2,789.7 332.2,774.5 		"/>
		<polygon class="st541" points="369.1,737.1 332.2,774.5 345.6,740.8 		"/>
		<polygon class="st542" points="365.1,926.9 369.1,938 359.7,939.5 364.4,945.1 369.1,938 357.5,957.7 352.2,944.7 		"/>
		<polygon class="st543" points="369.1,938 364.4,945.1 359.7,939.5 		"/>
		<polygon class="st544" points="368.3,653.6 368.3,672 362,652.5 362,652.4 		"/>
		<polygon class="st545" points="356.9,639 368.3,653.6 362,652.4 359.7,651.9 		"/>
		<polygon class="st546" points="362,652.5 368.3,672 348.2,687 		"/>
		<polygon class="st547" points="365.1,899.4 365.1,926.9 335.5,909.7 		"/>
		<polygon class="st548" points="365.1,926.9 352.2,944.7 335.5,909.7 		"/>
		<polygon class="st549" points="358.1,811 362.7,824.9 350.7,832.6 331.3,803.2 		"/>
		<polygon class="st550" points="362.7,824.9 359.7,836 350.7,832.6 		"/>
		<polygon class="st551" points="359.7,836 339.2,855 350.7,832.6 		"/>
		<polygon class="st271" points="339.2,789.7 358.1,811 331.3,803.2 		"/>
		<polygon class="st552" points="352.2,944.7 357.5,957.7 335.5,965.3 		"/>
		<polygon class="st553" points="335.5,909.7 352.2,944.7 317.9,931.7 		"/>
		<polygon class="st554" points="352.2,944.7 335.5,965.3 317.9,931.7 		"/>
		<polygon class="st555" points="351.4,242.2 346.7,257.5 345.5,249.6 		"/>
		<polygon class="st556" points="331.3,803.2 350.7,832.6 320.1,845.8 		"/>
		<polygon class="st557" points="350.7,832.6 339.2,855 320.1,845.8 		"/>
		<polygon class="st370" points="335.5,965.3 347.2,987.5 298.1,960 		"/>
		<polygon class="st558" points="347.2,987.5 314.1,982.8 298.1,960 		"/>
		<polygon class="st559" points="345.6,740.8 332.2,774.5 271.8,813.1 		"/>
		<polygon class="st560" points="339.2,867.8 339.2,888 321.3,903.1 		"/>
		<polygon class="st561" points="339.2,855 339.2,867.8 333.8,859.1 320.1,845.8 		"/>
		<polygon class="st562" points="332.2,774.5 339.2,789.7 331.3,803.2 300.1,828.2 298.1,840.2 271.8,836.6 		"/>
		<polygon class="st563" points="333.8,859.1 339.2,867.8 326.1,863.4 		"/>
		<polygon class="st564" points="339.2,867.8 321.3,903.1 301.2,902.6 321.3,888.6 328.1,870.1 326.1,863.4 		"/>
		<polygon class="st565" points="335.5,909.7 317.9,931.7 321.3,903.1 		"/>
		<polygon class="st566" points="317.9,931.7 335.5,965.3 298.1,960 		"/>
		<polygon class="st567" points="333.8,859.1 326.1,863.4 319.8,867.8 317.9,856.8 298.1,840.2 320.1,845.8 		"/>
		<polygon class="st568" points="332.2,774.5 271.8,836.6 271.8,813.1 		"/>
		<polygon class="st569" points="331.3,803.2 320.1,845.8 300.1,828.2 		"/>
		<polygon class="st570" points="326.1,863.4 328.1,870.1 319.8,867.8 		"/>
		<polygon class="st571" points="328.1,870.1 321.3,888.6 311.3,877.9 		"/>
		<polygon class="st572" points="328.1,870.1 311.3,877.9 319.8,867.8 		"/>
		<polygon points="311.3,877.9 321.3,888.6 301.2,902.6 283.7,908.1 		"/>
		<polygon class="st573" points="321.3,903.1 317.9,931.7 302,922.6 		"/>
		<polygon class="st574" points="321.3,903.1 302,922.6 301.2,902.6 		"/>
		<polygon class="st575" points="320.1,845.8 298.1,840.2 300.1,828.2 		"/>
		<polygon class="st576" points="317.9,856.8 319.8,867.8 311.3,877.9 		"/>
		<polygon class="st577" points="317.9,856.8 311.3,877.9 301.2,870.1 		"/>
		<polygon class="st359" points="317.9,931.7 298.1,960 279.6,938 258.7,926.9 271.8,930 290.4,927.7 302,922.6 		"/>
		<polygon class="st578" points="317.9,856.8 301.2,870.1 298.1,840.2 		"/>
		<polygon class="st579" points="298.1,960 314.1,982.8 279.6,962.6 		"/>
		<polygon class="st580" points="311.3,877.9 283.7,908.1 271.8,907.6 		"/>
		<polygon points="311.3,877.9 271.8,907.6 252.5,883.6 		"/>
		<polygon class="st581" points="311.3,877.9 252.5,883.6 301.2,870.1 		"/>
		<polygon class="st582" points="301.2,902.6 302,922.6 283.7,908.1 		"/>
		<polygon class="st351" points="302,922.6 290.4,927.7 283.7,908.1 		"/>
		<polygon class="st583" points="298.1,840.2 301.2,870.1 279.6,864.5 		"/>
		<polygon points="301.2,870.1 252.5,883.6 247.8,855 279.6,864.5 		"/>
		<polygon class="st584" points="298.1,840.2 279.6,864.5 271.8,836.6 		"/>
		<polygon class="st585" points="279.6,938 298.1,960 279.6,962.6 		"/>
		<polygon class="st586" points="283.7,908.1 290.4,927.7 271.8,930 		"/>
		<polygon points="283.7,908.1 271.8,930 258.7,926.9 252.5,925.4 		"/>
		<polygon points="283.7,908.1 252.5,925.4 244.1,917.7 		"/>
		<polygon points="283.7,908.1 244.1,917.7 252.5,906.8 271.8,907.6 		"/>
		<polygon class="st587" points="279.6,938 279.6,962.6 258.7,926.9 		"/>
		<polygon class="st588" points="271.8,836.6 279.6,864.5 247.8,855 		"/>
		<polygon class="st589" points="271.8,813.1 271.8,836.6 245.5,836.6 		"/>
		<polygon points="252.5,883.6 271.8,907.6 252.5,906.8 		"/>
		<polygon class="st590" points="271.8,813.1 245.5,836.6 252.5,826 		"/>
		<polygon class="st591" points="271.8,836.6 247.8,855 245.5,836.6 		"/>
		<polygon class="st96" points="252.5,883.6 252.5,906.8 241.6,897.5 		"/>
		<polygon points="247.8,855 252.5,883.6 224.8,880.5 		"/>
		<polygon class="st592" points="252.5,883.6 241.6,897.5 234.6,895.6 		"/>
		<polygon class="st593" points="252.5,906.8 244.1,917.7 241.6,904.5 		"/>
		<polygon class="st594" points="252.5,883.6 234.6,895.6 224.8,880.5 		"/>
		<polygon class="st595" points="252.5,906.8 241.6,904.5 241.6,897.5 		"/>
		<polygon class="st596" points="245.5,836.6 247.8,855 224.8,860.6 		"/>
		<polygon class="st597" points="247.8,855 224.8,880.5 224.8,860.6 		"/>
	</g>
	<g>
	</g>
</g>
</svg>
